<svg width="156" height="30" viewBox="0 0 156 30" fill="none" xmlns="http://www.w3.org/2000/svg">
<path d="M16.985 15.0311L20.6645 11.3751L19.4355 10.1541L15.7561 13.81L16.985 15.0311Z" fill="#BDFF18"/>
<path d="M16.3003 15.7341L17.7798 14.2641C17.0946 13.5833 16.208 13.3605 15.7994 13.7664C15.3909 14.1723 15.6155 15.0533 16.3003 15.7341Z" fill="#BDFF18"/>
<path d="M8.38333 19.3644L10.5177 21.4852C11.398 20.6105 11.6338 19.4267 11.0444 18.8411C10.4551 18.2554 9.26361 18.4901 8.38333 19.3644Z" fill="#BDFF18"/>
<path d="M16.1417 6.26062L5.98014 16.3573C5.80783 16.5285 5.80783 16.8061 5.98014 16.9773L6.95591 17.9468C7.12822 18.118 7.4076 18.118 7.57992 17.9468L17.7414 7.85019C17.9137 7.67897 17.9137 7.40137 17.7414 7.23016L16.7657 6.26062C16.5934 6.08941 16.314 6.08941 16.1417 6.26062Z" fill="#BDFF18"/>
<path d="M11.1013 12.697C12.8143 14.4907 13.6312 16.7212 13.4492 18.6016C14.9323 16.5585 14.6084 13.4717 12.5624 11.3294C10.5321 9.20355 7.49415 8.72822 5.38624 10.076C7.25538 10.0092 9.41074 10.9273 11.1013 12.697Z" fill="#BDFF18"/>
<path d="M9.5616 0.944487L0.280994 10.1658C0.108677 10.3371 0.108677 10.6147 0.280994 10.7859L1.25676 11.7554C1.42907 11.9266 1.70845 11.9266 1.88077 11.7554L11.1614 2.53405C11.3337 2.36283 11.3337 2.08524 11.1614 1.91402L10.1856 0.944487C10.0133 0.77327 9.73391 0.77327 9.5616 0.944487Z" fill="#BDFF18"/>
<path d="M11.0079 18.8092L1.81525 9.67529C1.52795 9.38982 1.06214 9.38982 0.774835 9.67529L0.215477 10.2311C-0.0718259 10.5165 -0.0718257 10.9794 0.215478 11.2649L9.40808 20.3988C9.69538 20.6842 10.1612 20.6842 10.4485 20.3988L11.0079 19.843C11.2952 19.5575 11.2952 19.0947 11.0079 18.8092Z" fill="#BDFF18"/>
<path d="M10.5148 0L8.38038 2.12083C9.26546 3.00026 10.4608 3.23842 11.0502 2.65276C11.6396 2.06711 11.3999 0.87943 10.5148 0Z" fill="#BDFF18"/>
<path d="M8.8845 10.5619L12.4323 7.03674C12.6527 6.81777 12.6527 6.46273 12.4323 6.24376L12.0014 5.81565C11.7811 5.59668 11.4237 5.59668 11.2034 5.81565L7.65557 9.3408C7.43518 9.55977 7.43518 9.91481 7.65557 10.1338L8.08642 10.5619C8.30681 10.7809 8.66412 10.7809 8.8845 10.5619Z" fill="#BDFF18"/>
<path d="M16.7144 8.65773L19.521 11.4464C19.8181 11.7416 20.2998 11.7416 20.5969 11.4464L20.7499 11.2944C21.047 10.9991 21.047 10.5205 20.7499 10.2253L17.9433 7.43664C17.6462 7.14143 17.1645 7.14143 16.8674 7.43664L16.7144 7.5887C16.4173 7.8839 16.4173 8.36252 16.7144 8.65773Z" fill="#BDFF18"/>
<path d="M25.8638 18.1931V4.80309H34.86L36.8896 6.81976V10.0355L35.9753 10.9621L37.4199 12.3066V16.1764L35.3902 18.1931H25.8638ZM29.283 9.9992H32.9766L33.6166 9.36331V8.01886L32.9766 7.38297H29.283V9.9992ZM29.283 15.6132H33.3606L34.0006 14.9773V12.997L33.3606 12.3611H29.283V15.6132Z" fill="#CAFA19"/>
<path d="M39.5239 18.1931V4.80309H49.7635V7.56466H42.9432V10.0355H49.0869V12.5973H42.9432V15.4315H49.7635V18.1931H39.5239Z" fill="#CAFA19"/>
<path d="M55.1701 18.1931V13.5057L53.817 12.3429L50.672 4.80309H54.6033L56.5415 10.9621H57.1998L59.138 4.80309H63.0692L59.9242 12.3429L58.5711 13.5057V18.1931H55.1701Z" fill="#CAFA19"/>
<path d="M65.4011 18.1931L63.3715 16.1764V6.81976L65.4011 4.80309H73.3002L75.3299 6.81976V16.1764L73.3002 18.1931H65.4011ZM67.4491 15.6132H71.2889L71.9289 14.9773V8.01886L71.2523 7.38297H67.4491L66.7908 8.01886V14.9773L67.4491 15.6132Z" fill="#CAFA19"/>
<path d="M77.5224 18.1931V4.80309H81.2525L85.7872 12.8334V4.80309H88.9688V18.1931H85.7872L81.3622 10.3444H80.7039V18.1931H77.5224Z" fill="#CAFA19"/>
<path d="M91.5218 18.1931V4.80309H100.317L103.114 7.58283V15.4133L100.317 18.1931H91.5218ZM94.9411 15.6132H98.8358L99.8049 14.6503V8.34589L98.8358 7.38297H94.9411V15.6132Z" fill="#CAFA19"/>
<path d="M105.128 18.1931V4.80309H108.548V9.78118H113.137V4.80309H116.556V18.1931H113.137V12.4337H108.548V18.1931H105.128Z" fill="#CAFA19"/>
<path d="M117.83 18.1931L121.78 4.80309H127.338L131.288 18.1931H127.667L126.991 15.5223H122.127L121.45 18.1931H117.83ZM122.804 12.9061H126.314L124.888 7.36481H124.23L122.804 12.9061Z" fill="#CAFA19"/>
<path d="M134.041 18.1931L132.012 16.1764V6.81976L134.041 4.80309H140.971L143.019 6.81976V9.52683H139.691V8.01886L139.033 7.38297H136.089L135.431 8.01886V14.9773L136.089 15.6132H139.143L139.819 14.9773V13.4512H143.129V16.1764L141.099 18.1931H134.041Z" fill="#CAFA19"/>
<path d="M144.627 18.1931V4.80309H148.046V10.1264L152.215 4.80309H156L151.246 10.6351L156 18.1931H152.361L149.326 13.0151L148.046 14.5776V18.1931H144.627Z" fill="#CAFA19"/>
<path d="M74.2571 29.3592V25.951H73.0493V25.0655H76.5614V25.951H75.3536V29.3592H74.2571Z" fill="#BDFF18"/>
<path d="M77.0034 29.3592V25.0655H78.0998V26.6618H79.5715V25.0655H80.6679V29.3592H79.5715V27.5123H78.0998V29.3592H77.0034Z" fill="#BDFF18"/>
<path d="M81.3109 29.3592V28.5377H81.7916L81.7799 25.8869H81.3109V25.0655H83.3044V25.8869H82.8295L82.8177 28.5377H83.3044V29.3592H81.3109Z" fill="#BDFF18"/>
<path d="M83.9489 29.3592V25.0655H85.145L86.5991 27.6405V25.0655H87.6193V29.3592H86.5991L85.1802 26.8424H84.9691V29.3592H83.9489Z" fill="#BDFF18"/>
<path d="M88.438 29.3592V25.0655H89.5344V26.7725L90.8713 25.0655H92.085L90.5605 26.9356L92.085 29.3592H90.9182L89.9449 27.6988L89.5344 28.1998V29.3592H88.438Z" fill="#BDFF18"/>
<path d="M92.1986 30L92.4683 28.4445H93.4827L92.8143 30H92.1986Z" fill="#BDFF18"/>
<path d="M95.75 29.3592V25.0655H98.6347L99.2856 25.7121V26.7433L98.9924 27.0404L99.4556 27.4716V28.7125L98.8048 29.3592H95.75ZM96.8464 26.7317H98.0308L98.236 26.5278V26.0967L98.0308 25.8927H96.8464V26.7317ZM96.8464 28.5319H98.1539L98.3591 28.328V27.6929L98.1539 27.489H96.8464V28.5319Z" fill="#BDFF18"/>
<path d="M100.74 29.3592L100.101 28.7125V25.0655H101.197V28.328L101.403 28.5319H102.593L102.798 28.328V25.0655H103.895V28.7125L103.244 29.3592H100.74Z" fill="#BDFF18"/>
<path d="M104.512 29.3592V28.5377H104.993L104.981 25.8869H104.512V25.0655H106.506V25.8869H106.031L106.019 28.5377H106.506V29.3592H104.512Z" fill="#BDFF18"/>
<path d="M107.15 29.3592V25.0655H108.247V28.4736H110.228V29.3592H107.15Z" fill="#BDFF18"/>
<path d="M110.729 29.3592V25.0655H113.549L114.446 25.9568V28.4678L113.549 29.3592H110.729ZM111.825 28.5319H113.074L113.385 28.2231V26.2015L113.074 25.8927H111.825V28.5319Z" fill="#BDFF18"/>
<path d="M114.793 30L115.063 28.4445H116.077L115.409 30H114.793Z" fill="#BDFF18"/>
<path d="M118.878 29.3592L118.227 28.7125V25.7121L118.878 25.0655H121.294L121.944 25.7121V26.5045L120.877 26.4986V26.0967L120.666 25.8927H119.535L119.324 26.0967V28.3221L119.535 28.5319H120.455L121.018 28.0367V27.8852H120.227V27.0521H122.009V29.3592H121.083V28.9746L120.649 29.3592H118.878Z" fill="#BDFF18"/>
<path d="M123.676 29.3592L123.025 28.7125V25.7121L123.676 25.0655H126.209L126.86 25.7121V28.7125L126.209 29.3592H123.676ZM124.333 28.5319H125.564L125.769 28.328V26.0967L125.553 25.8927H124.333L124.122 26.0967V28.328L124.333 28.5319Z" fill="#BDFF18"/>
<path d="M129.006 29.3592V25.0655H131.891L132.542 25.7121V26.7433L132.248 27.0404L132.712 27.4716V28.7125L132.061 29.3592H129.006ZM130.102 26.7317H131.287L131.492 26.5278V26.0967L131.287 25.8927H130.102V26.7317ZM130.102 28.5319H131.41L131.615 28.328V27.6929L131.41 27.489H130.102V28.5319Z" fill="#BDFF18"/>
<path d="M133.386 29.3592V25.0655H136.67V25.951H134.483V26.7433H136.453V27.5648H134.483V28.4736H136.67V29.3592H133.386Z" fill="#BDFF18"/>
<path d="M138.404 29.3592V27.8561L137.97 27.4832L136.961 25.0655H138.222L138.843 27.0404H139.054L139.676 25.0655H140.936L139.928 27.4832L139.494 27.8561V29.3592H138.404Z" fill="#BDFF18"/>
<path d="M141.684 29.3592L141.033 28.7125V25.7121L141.684 25.0655H144.217L144.868 25.7121V28.7125L144.217 29.3592H141.684ZM142.341 28.5319H143.572L143.777 28.328V26.0967L143.56 25.8927H142.341L142.13 26.0967V28.328L142.341 28.5319Z" fill="#BDFF18"/>
<path d="M145.571 29.3592V25.0655H146.767L148.221 27.6405V25.0655H149.241V29.3592H148.221L146.802 26.8424H146.591V29.3592H145.571Z" fill="#BDFF18"/>
<path d="M150.06 29.3592V25.0655H152.88L153.777 25.9568V28.4678L152.88 29.3592H150.06ZM151.157 28.5319H152.405L152.716 28.2231V26.2015L152.405 25.8927H151.157V28.5319Z" fill="#BDFF18"/>
</svg>
