<svg width="422" height="581" viewBox="0 0 422 581" fill="none" xmlns="http://www.w3.org/2000/svg">
<path d="M343.779 406.031L411.644 355.813L388.977 325.181L321.112 375.399L343.779 406.031Z" fill="white"/>
<path d="M331.154 415.817L358.441 395.625C345.805 378.546 329.451 369.222 321.916 374.798C314.381 380.373 318.523 398.74 331.154 415.817Z" fill="white"/>
<path d="M185.132 441.641L224.499 494.843C226.141 493.628 227.661 492.315 229.056 490.92C241.459 478.522 243.985 459.694 234.214 446.488C223.344 431.797 201.368 429.633 185.132 441.641Z" fill="white"/>
<path d="M328.228 231.033L140.807 369.718C137.629 372.07 137.629 377.458 140.807 381.753L158.804 406.075C161.982 410.37 167.135 411.946 170.313 409.594L357.735 270.909C360.913 268.557 360.913 263.169 357.735 258.874L339.738 234.552C336.559 230.257 331.407 228.681 328.228 231.033Z" fill="white"/>
<path d="M235.262 327.545C266.858 372.023 281.925 419.926 278.567 455.4C305.922 424.104 299.947 362.361 262.21 309.239C224.763 256.526 168.731 230.168 129.852 244.444C164.327 253.686 204.081 283.662 235.262 327.545Z" fill="white"/>
<path d="M206.862 90.7366L35.6881 217.398C32.5098 219.75 32.5098 225.139 35.6881 229.434L53.6853 253.756C56.8635 258.051 62.0165 259.626 65.1947 257.274L236.368 130.612C239.547 128.261 239.547 122.872 236.368 118.577L218.371 94.2553C215.193 89.9602 210.04 88.3848 206.862 90.7366Z" fill="white"/>
<path d="M233.537 445.663L63.9868 216.528C58.6877 209.367 50.0962 206.74 44.7971 210.661L34.4802 218.295C29.1811 222.217 29.1811 231.201 34.4802 238.362L204.031 467.496C209.33 474.658 217.921 477.284 223.22 473.363L233.537 465.729C238.836 461.808 238.836 452.824 233.537 445.663Z" fill="white"/>
<path d="M224.446 77.7793L185.077 106.91C201.402 128.972 223.448 140.335 234.32 132.291C245.191 124.246 240.77 99.8408 224.446 77.7793Z" fill="white"/>
<path d="M194.373 273.601L259.809 225.18C263.874 222.173 263.874 215.281 259.809 209.788L251.862 199.048C247.797 193.555 241.207 191.54 237.142 194.548L171.706 242.968C167.641 245.976 167.641 252.868 171.706 258.361L179.653 269.1C183.717 274.594 190.308 276.609 194.373 273.601Z" fill="white"/>
<path d="M338.789 280.792L390.554 350.749C396.034 358.155 404.919 360.871 410.398 356.816L413.221 354.727C418.701 350.672 418.701 341.382 413.221 333.976L361.455 264.019C355.976 256.614 347.091 253.897 341.611 257.952L338.789 260.041C333.309 264.096 333.309 273.386 338.789 280.792Z" fill="white"/>
<path d="M214.914 505.063C213.519 506.457 211.999 507.77 210.357 508.985L224.5 494.843C226.141 493.628 227.661 492.315 229.056 490.92L214.914 505.063Z" fill="url(#paint0_linear_106_267)"/>
<path d="M210.357 508.985L170.99 455.783L185.132 441.641L224.499 494.843L210.357 508.985Z" fill="url(#paint1_linear_106_267)"/>
<path d="M189.889 481.639C195.188 488.8 203.779 491.427 209.078 487.505L223.221 473.363C217.921 477.284 209.33 474.658 204.031 467.496L189.889 481.639Z" fill="url(#paint2_linear_106_267)"/>
<path d="M126.664 395.895L144.661 420.217L158.803 406.075L140.806 381.753L126.664 395.895Z" fill="url(#paint3_linear_106_267)"/>
<path d="M144.662 420.217C147.84 424.512 152.993 426.088 156.172 423.736L170.314 409.594C167.135 411.946 161.982 410.37 158.804 406.075L144.662 420.217Z" fill="url(#paint4_linear_106_267)"/>
<path d="M209.078 487.505L219.395 479.871L233.537 465.729L223.22 473.363L209.078 487.505Z" fill="url(#paint5_linear_106_267)"/>
<path d="M220.072 460.63C229.84 473.832 227.319 492.653 214.925 505.051L229.056 490.92C241.459 478.522 243.986 459.694 234.215 446.488L220.072 460.63Z" fill="url(#paint6_linear_106_267)"/>
<path d="M126.665 395.895C123.487 391.6 123.487 386.212 126.665 383.86L139.679 370.846C139.995 370.42 140.371 370.04 140.807 369.718L139.679 370.846C137.689 373.527 138.065 378.047 140.807 381.753L126.665 395.895Z" fill="url(#paint7_linear_106_267)"/>
<path d="M170.99 455.783C187.226 443.775 209.202 445.939 220.072 460.63L234.215 446.488C223.345 431.797 201.368 429.633 185.132 441.641L170.99 455.783Z" fill="url(#paint8_linear_106_267)"/>
<path d="M20.3379 252.504L189.888 481.639L204.031 467.496L34.48 238.362L20.3379 252.504Z" fill="url(#paint9_linear_106_267)"/>
<path d="M221.276 477.99C224.594 473.52 223.967 465.984 219.395 459.805L233.537 445.663C238.836 452.824 238.836 461.808 233.537 465.729L221.276 477.99C220.748 478.7 220.121 479.333 219.395 479.871L221.276 477.99Z" fill="url(#paint10_linear_106_267)"/>
<path d="M21.5449 243.576L39.5421 267.898L53.6842 253.756L35.6871 229.434L21.5449 243.576Z" fill="url(#paint11_linear_106_267)"/>
<path d="M39.543 267.898C42.7212 272.193 47.8742 273.768 51.0524 271.417L65.1946 257.274C62.0163 259.626 56.8634 258.051 53.6851 253.756L39.543 267.898Z" fill="url(#paint12_linear_106_267)"/>
<path d="M20.3376 252.504C15.0385 245.343 15.0385 236.359 20.3376 232.438L32.5985 220.177C33.1259 219.466 33.753 218.833 34.4797 218.296L32.5985 220.177C29.2803 224.647 29.9074 232.183 34.4797 238.362L20.3376 252.504Z" fill="url(#paint13_linear_106_267)"/>
<path d="M21.5458 243.576C18.3675 239.281 18.3675 233.892 21.5458 231.541L34.5596 218.527C34.8759 218.101 35.252 217.721 35.6879 217.398L34.5596 218.527C32.5695 221.208 32.9456 225.728 35.6879 229.434L21.5458 243.576Z" fill="url(#paint14_linear_106_267)"/>
<path d="M219.394 459.805L49.8438 230.67L63.9859 216.528L233.536 445.663L219.394 459.805Z" fill="url(#paint15_linear_106_267)"/>
<path d="M30.6548 224.804L20.3379 232.438L34.48 218.296L44.797 210.661L30.6548 224.804Z" fill="url(#paint16_linear_106_267)"/>
<path d="M49.844 230.67C44.5449 223.509 35.9534 220.882 30.6543 224.803L44.7964 210.661C50.0955 206.74 58.687 209.367 63.9861 216.528L49.844 230.67Z" fill="url(#paint17_linear_106_267)"/>
<path d="M264.425 469.542C267.782 434.069 252.715 386.165 221.119 341.688L235.261 327.545C266.857 372.023 281.924 419.926 278.567 455.4L264.425 469.542Z" fill="url(#paint18_linear_106_267)"/>
<path d="M248.068 323.381C285.805 376.503 291.78 438.246 264.425 469.542L278.568 455.4C305.922 424.104 299.947 362.361 262.21 309.239L248.068 323.381Z" fill="url(#paint19_linear_106_267)"/>
<path d="M221.119 341.688C189.938 297.805 150.184 267.829 115.709 258.586L129.851 244.444C164.326 253.686 204.08 283.663 235.261 327.545L221.119 341.688Z" fill="url(#paint20_linear_106_267)"/>
<path d="M157.562 272.503L165.509 283.242L179.651 269.1L171.705 258.361L157.562 272.503Z" fill="url(#paint21_linear_106_267)"/>
<path d="M165.51 283.242C169.575 288.736 176.165 290.751 180.23 287.743L194.372 273.601C190.307 276.609 183.717 274.594 179.652 269.1L165.51 283.242Z" fill="url(#paint22_linear_106_267)"/>
<path d="M115.709 258.586C154.588 244.31 210.62 270.668 248.067 323.381L262.209 309.239C224.762 256.526 168.73 230.168 129.851 244.444L115.709 258.586Z" fill="url(#paint23_linear_106_267)"/>
<path d="M157.564 272.503C153.499 267.01 153.499 260.118 157.564 257.11L170.263 244.411C170.668 243.866 171.149 243.381 171.706 242.968L170.263 244.411C167.718 247.84 168.199 253.621 171.706 258.361L157.564 272.503Z" fill="url(#paint24_linear_106_267)"/>
<path d="M156.17 423.736L343.591 285.051L357.734 270.909L170.312 409.594L156.17 423.736Z" fill="url(#paint25_linear_106_267)"/>
<path d="M317.011 429.959C304.38 412.882 300.238 394.515 307.773 388.94L320.301 376.412C320.763 375.793 321.3 375.253 321.915 374.798L320.301 376.412C315.113 383.364 319.554 400.134 331.154 415.817L317.011 429.959Z" fill="url(#paint26_linear_106_267)"/>
<path d="M314.086 245.175L126.664 383.86L140.806 369.718L328.228 231.033L314.086 245.175Z" fill="url(#paint27_linear_106_267)"/>
<path d="M344.299 409.767L317.012 429.959L331.154 415.817L358.441 395.625L344.299 409.767Z" fill="url(#paint28_linear_106_267)"/>
<path d="M306.969 389.541L329.636 420.173L343.778 406.031L321.111 375.399L306.969 389.541Z" fill="url(#paint29_linear_106_267)"/>
<path d="M307.773 388.94C315.308 383.364 331.663 392.689 344.299 409.767L358.441 395.625C345.805 378.546 329.451 369.222 321.916 374.798L307.773 388.94Z" fill="url(#paint30_linear_106_267)"/>
<path d="M51.0527 271.417L222.226 144.755L236.369 130.613L65.1949 257.274L51.0527 271.417Z" fill="url(#paint31_linear_106_267)"/>
<path d="M192.719 104.879L21.5449 231.541L35.6871 217.398L206.861 90.7366L192.719 104.879Z" fill="url(#paint32_linear_106_267)"/>
<path d="M180.23 287.743L245.667 239.323L259.809 225.18L194.373 273.601L180.23 287.743Z" fill="url(#paint33_linear_106_267)"/>
<path d="M222.999 208.69L157.562 257.11L171.705 242.968L237.141 194.548L222.999 208.69Z" fill="url(#paint34_linear_106_267)"/>
<path d="M329.637 420.173L397.502 369.955L411.644 355.813L343.779 406.031L329.637 420.173Z" fill="url(#paint35_linear_106_267)"/>
<path d="M374.834 339.323L306.969 389.541L321.111 375.399L388.976 325.181L374.834 339.323Z" fill="url(#paint36_linear_106_267)"/>
<path d="M247.109 237.879C249.654 234.451 249.173 228.67 245.666 223.93L259.808 209.788C263.873 215.281 263.873 222.173 259.808 225.18L247.109 237.879C246.705 238.424 246.223 238.91 245.666 239.322L247.109 237.879Z" fill="url(#paint37_linear_106_267)"/>
<path d="M376.412 364.891C381.892 372.297 390.776 375.013 396.256 370.958L410.398 356.816C404.919 360.871 396.034 358.154 390.554 350.749L376.412 364.891Z" fill="url(#paint38_linear_106_267)"/>
<path d="M237.72 213.19C233.655 207.697 227.065 205.682 223 208.69L237.142 194.548C241.207 191.54 247.797 193.555 251.862 199.048L237.72 213.19Z" fill="url(#paint39_linear_106_267)"/>
<path d="M324.646 294.934L376.412 364.891L390.554 350.749L338.789 280.792L324.646 294.934Z" fill="url(#paint40_linear_106_267)"/>
<path d="M245.666 223.93L237.719 213.19L251.861 199.048L259.808 209.788L245.666 223.93Z" fill="url(#paint41_linear_106_267)"/>
<path d="M396.256 370.958L399.079 368.869L413.221 354.727L410.398 356.816L396.256 370.958Z" fill="url(#paint42_linear_106_267)"/>
<path d="M397.501 369.956L374.834 339.323L388.976 325.181L411.643 355.813L397.501 369.956Z" fill="url(#paint43_linear_106_267)"/>
<path d="M324.645 294.934C319.165 287.528 319.165 278.238 324.645 274.183L336.842 261.986C337.387 261.251 338.036 260.597 338.787 260.041L336.842 261.986C333.41 266.609 334.059 274.402 338.787 280.792L324.645 294.934Z" fill="url(#paint44_linear_106_267)"/>
<path d="M401.024 366.924C404.455 362.302 403.806 354.508 399.078 348.119L413.22 333.976C418.7 341.382 418.7 350.672 413.22 354.727L401.024 366.924C400.478 367.659 399.83 368.313 399.078 368.869L401.024 366.924Z" fill="url(#paint45_linear_106_267)"/>
<path d="M327.469 272.094L324.646 274.183L338.789 260.041L341.611 257.952L327.469 272.094Z" fill="url(#paint46_linear_106_267)"/>
<path d="M399.078 348.119L347.312 278.161L361.455 264.019L413.22 333.976L399.078 348.119Z" fill="url(#paint47_linear_106_267)"/>
<path d="M220.176 146.433C209.305 154.477 187.258 143.114 170.934 121.053L185.076 106.91C201.4 128.972 223.447 140.335 234.318 132.291L220.176 146.433Z" fill="url(#paint48_linear_106_267)"/>
<path d="M347.313 278.161C341.833 270.756 332.949 268.039 327.469 272.094L341.611 257.952C347.091 253.897 355.975 256.614 361.455 264.019L347.313 278.161Z" fill="url(#paint49_linear_106_267)"/>
<path d="M344.72 283.923C346.71 281.242 346.334 276.722 343.592 273.016L357.734 258.874C360.912 263.169 360.912 268.557 357.734 270.909L344.72 283.923C344.404 284.349 344.028 284.729 343.592 285.051L344.72 283.923Z" fill="url(#paint50_linear_106_267)"/>
<path d="M325.595 248.694C322.417 244.399 317.264 242.824 314.086 245.175L328.228 231.033C331.406 228.681 336.559 230.257 339.738 234.552L325.595 248.694Z" fill="url(#paint51_linear_106_267)"/>
<path d="M343.593 273.016L325.596 248.694L339.738 234.552L357.735 258.874L343.593 273.016Z" fill="url(#paint52_linear_106_267)"/>
<path d="M223.355 143.626C225.345 140.945 224.969 136.425 222.227 132.719L236.369 118.577C239.547 122.872 239.547 128.261 236.369 130.613L223.355 143.626C223.039 144.052 222.662 144.432 222.227 144.755L223.355 143.626Z" fill="url(#paint53_linear_106_267)"/>
<path d="M170.934 121.053L210.302 91.9214L224.444 77.7793L185.076 106.91L170.934 121.053Z" fill="url(#paint54_linear_106_267)"/>
<path d="M204.228 108.397C201.05 104.102 195.897 102.527 192.719 104.879L206.861 90.7365C210.039 88.3848 215.192 89.9602 218.37 94.2553L204.228 108.397Z" fill="url(#paint55_linear_106_267)"/>
<path d="M222.226 132.719L204.229 108.398L218.371 94.2554L236.368 118.577L222.226 132.719Z" fill="url(#paint56_linear_106_267)"/>
<path d="M222.773 143.836C222.034 144.829 221.169 145.699 220.177 146.433L222.773 143.836C230.142 133.954 225.138 111.97 210.303 91.9214L224.445 77.7793C240.77 99.8408 245.19 124.246 234.319 132.291L222.773 143.836Z" fill="url(#paint57_linear_106_267)"/>
<g clip-path="url(#clip0_106_267)">
<path d="M329.637 420.173L397.502 369.956L374.835 339.323L306.97 389.541L329.637 420.173Z" fill="#BDFF19" stroke="#BDFF19" stroke-width="0.452565" stroke-miterlimit="10"/>
<path d="M317.013 429.959L344.301 409.768C331.664 392.689 315.31 383.365 307.775 388.94C300.24 394.516 304.382 412.882 317.013 429.959Z" fill="#BDFF19" stroke="#BDFF19" stroke-width="0.452565" stroke-miterlimit="10"/>
<path d="M170.99 455.784L210.357 508.985C226.593 496.971 230.942 475.322 220.072 460.63C209.202 445.939 187.226 443.775 170.99 455.784Z" fill="#BDFF19" stroke="#BDFF19" stroke-width="0.452565" stroke-miterlimit="10"/>
<path d="M314.086 245.176L126.665 383.86C123.487 386.212 123.487 391.6 126.665 395.896L144.662 420.217C147.84 424.513 152.993 426.088 156.172 423.736L343.593 285.052C346.771 282.7 346.771 277.311 343.593 273.016L325.596 248.694C322.418 244.399 317.265 242.824 314.086 245.176Z" fill="#BDFF19" stroke="#BDFF19" stroke-width="0.452565" stroke-miterlimit="10"/>
<path d="M221.121 341.688C252.716 386.165 267.784 434.069 264.426 469.543C291.781 438.246 285.806 376.503 248.069 323.381C210.622 270.668 154.59 244.311 115.711 258.586C150.186 267.829 189.94 297.805 221.121 341.688Z" fill="#BDFF19" stroke="#BDFF19" stroke-width="0.452565" stroke-miterlimit="10"/>
<path d="M192.719 104.879L21.5457 231.541C18.3675 233.893 18.3675 239.281 21.5457 243.576L39.5429 267.898C42.7212 272.193 47.8741 273.769 51.0524 271.417L222.226 144.755C225.404 142.403 225.404 137.015 222.226 132.719L204.229 108.398C201.051 104.103 195.898 102.527 192.719 104.879Z" fill="#BDFF19" stroke="#BDFF19" stroke-width="0.452565" stroke-miterlimit="10"/>
<path d="M219.395 459.805L49.8449 230.671C44.5458 223.509 35.9542 220.883 30.6551 224.804L20.3382 232.438C15.0391 236.359 15.0391 245.343 20.3382 252.504L189.889 481.639C195.188 488.8 203.779 491.427 209.078 487.506L219.395 479.872C224.695 475.95 224.694 466.966 219.395 459.805Z" fill="#BDFF19" stroke="#BDFF19" stroke-width="0.452565" stroke-miterlimit="10"/>
<path d="M210.304 91.9216L170.936 121.053C187.26 143.114 209.307 154.477 220.178 146.433C231.05 138.389 226.629 113.983 210.304 91.9216Z" fill="#BDFF19" stroke="#BDFF19" stroke-width="0.452565" stroke-miterlimit="10"/>
<path d="M180.231 287.743L245.667 239.323C249.732 236.315 249.732 229.423 245.667 223.93L237.721 213.191C233.656 207.697 227.065 205.682 223.001 208.69L157.564 257.111C153.499 260.118 153.499 267.01 157.564 272.503L165.511 283.243C169.576 288.736 176.166 290.751 180.231 287.743Z" fill="#BDFF19" stroke="#BDFF19" stroke-width="0.452565" stroke-miterlimit="10"/>
<path d="M324.646 294.934L376.412 364.891C381.892 372.297 390.776 375.013 396.256 370.958L399.079 368.87C404.559 364.815 404.559 355.524 399.079 348.119L347.313 278.162C341.833 270.756 332.949 268.04 327.469 272.095L324.646 274.183C319.166 278.238 319.166 287.529 324.646 294.934Z" fill="#BDFF19" stroke="#BDFF19" stroke-width="0.452565" stroke-miterlimit="10"/>
</g>
<defs>
<linearGradient id="paint0_linear_106_267" x1="212.779" y1="506.564" x2="213.096" y2="506.881" gradientUnits="userSpaceOnUse">
<stop stop-color="white"/>
<stop offset="0.5" stop-color="white"/>
<stop offset="1" stop-color="white"/>
</linearGradient>
<linearGradient id="paint1_linear_106_267" x1="159.143" y1="467.631" x2="205.427" y2="513.915" gradientUnits="userSpaceOnUse">
<stop stop-color="#BDB3B8"/>
<stop offset="1" stop-color="#BDB3B8"/>
</linearGradient>
<linearGradient id="paint2_linear_106_267" x1="185.175" y1="486.352" x2="197.703" y2="498.88" gradientUnits="userSpaceOnUse">
<stop stop-color="#BDB3B8"/>
<stop offset="0.5" stop-color="#D3D0D0"/>
<stop offset="1" stop-color="white"/>
</linearGradient>
<linearGradient id="paint3_linear_106_267" x1="122.372" y1="400.187" x2="143.532" y2="421.347" gradientUnits="userSpaceOnUse">
<stop stop-color="#BDB3B8"/>
<stop offset="1" stop-color="#BDB3B8"/>
</linearGradient>
<linearGradient id="paint4_linear_106_267" x1="142.664" y1="422.215" x2="150.178" y2="429.729" gradientUnits="userSpaceOnUse">
<stop stop-color="#BDB3B8"/>
<stop offset="0.5" stop-color="#D3D0D0"/>
<stop offset="1" stop-color="white"/>
</linearGradient>
<linearGradient id="paint5_linear_106_267" x1="211.319" y1="485.265" x2="212.66" y2="486.606" gradientUnits="userSpaceOnUse">
<stop stop-color="white"/>
<stop offset="1" stop-color="white"/>
</linearGradient>
<linearGradient id="paint6_linear_106_267" x1="215.625" y1="465.078" x2="235.262" y2="484.715" gradientUnits="userSpaceOnUse">
<stop stop-color="#BDB3B8"/>
<stop offset="0.5" stop-color="#F1F0F0"/>
<stop offset="1" stop-color="white"/>
</linearGradient>
<linearGradient id="paint7_linear_106_267" x1="126.701" y1="383.824" x2="132.719" y2="389.841" gradientUnits="userSpaceOnUse">
<stop stop-color="white"/>
<stop offset="0.5" stop-color="#E7E7E7"/>
<stop offset="1" stop-color="#BDB3B8"/>
</linearGradient>
<linearGradient id="paint8_linear_106_267" x1="159.589" y1="467.185" x2="186.553" y2="494.15" gradientUnits="userSpaceOnUse">
<stop stop-color="white"/>
<stop offset="0.5" stop-color="#E0DFDF"/>
<stop offset="1" stop-color="#BDB3B8"/>
</linearGradient>
<linearGradient id="paint9_linear_106_267" x1="-37.5362" y1="310.378" x2="161.806" y2="509.721" gradientUnits="userSpaceOnUse">
<stop stop-color="#BDB3B8"/>
<stop offset="1" stop-color="#BDB3B8"/>
</linearGradient>
<linearGradient id="paint10_linear_106_267" x1="220.06" y1="459.139" x2="230.094" y2="469.172" gradientUnits="userSpaceOnUse">
<stop stop-color="#BDB3B8"/>
<stop offset="0.5" stop-color="#E7E7E7"/>
<stop offset="1" stop-color="white"/>
</linearGradient>
<linearGradient id="paint11_linear_106_267" x1="17.253" y1="247.868" x2="38.4125" y2="269.027" gradientUnits="userSpaceOnUse">
<stop stop-color="#BDB3B8"/>
<stop offset="1" stop-color="#BDB3B8"/>
</linearGradient>
<linearGradient id="paint12_linear_106_267" x1="37.5448" y1="269.896" x2="45.059" y2="277.41" gradientUnits="userSpaceOnUse">
<stop stop-color="#BDB3B8"/>
<stop offset="0.5" stop-color="#D3D0D0"/>
<stop offset="1" stop-color="white"/>
</linearGradient>
<linearGradient id="paint13_linear_106_267" x1="19.0164" y1="233.759" x2="29.0496" y2="243.792" gradientUnits="userSpaceOnUse">
<stop stop-color="white"/>
<stop offset="0.5" stop-color="#E7E7E7"/>
<stop offset="1" stop-color="#BDB3B8"/>
</linearGradient>
<linearGradient id="paint14_linear_106_267" x1="21.5823" y1="231.504" x2="27.5999" y2="237.522" gradientUnits="userSpaceOnUse">
<stop stop-color="white"/>
<stop offset="0.5" stop-color="#E7E7E7"/>
<stop offset="1" stop-color="#BDB3B8"/>
</linearGradient>
<linearGradient id="paint15_linear_106_267" x1="-8.03035" y1="288.545" x2="191.312" y2="487.887" gradientUnits="userSpaceOnUse">
<stop stop-color="#BDB3B8"/>
<stop offset="1" stop-color="#BDB3B8"/>
</linearGradient>
<linearGradient id="paint16_linear_106_267" x1="22.5784" y1="230.197" x2="23.9198" y2="231.538" gradientUnits="userSpaceOnUse">
<stop stop-color="white"/>
<stop offset="1" stop-color="white"/>
</linearGradient>
<linearGradient id="paint17_linear_106_267" x1="26.8504" y1="228.607" x2="39.3787" y2="241.136" gradientUnits="userSpaceOnUse">
<stop stop-color="white"/>
<stop offset="0.5" stop-color="#D3D0D0"/>
<stop offset="1" stop-color="#BDB3B8"/>
</linearGradient>
<linearGradient id="paint18_linear_106_267" x1="207.717" y1="355.09" x2="293.297" y2="440.67" gradientUnits="userSpaceOnUse">
<stop stop-color="#BFB5B9"/>
<stop offset="0.5" stop-color="#D2CFD0"/>
<stop offset="1" stop-color="#EEEEED"/>
</linearGradient>
<linearGradient id="paint19_linear_106_267" x1="238.364" y1="333.085" x2="319.624" y2="414.344" gradientUnits="userSpaceOnUse">
<stop stop-color="#BFB5B9"/>
<stop offset="0.5" stop-color="#E0DFDF"/>
<stop offset="1" stop-color="white"/>
</linearGradient>
<linearGradient id="paint20_linear_106_267" x1="80.5121" y1="293.783" x2="174.768" y2="388.038" gradientUnits="userSpaceOnUse">
<stop stop-color="#D5D2D3"/>
<stop offset="0.5" stop-color="#BDB2B8"/>
<stop offset="1" stop-color="#BFB5B9"/>
</linearGradient>
<linearGradient id="paint21_linear_106_267" x1="156.824" y1="273.242" x2="166.167" y2="282.585" gradientUnits="userSpaceOnUse">
<stop stop-color="#BDB3B8"/>
<stop offset="1" stop-color="#BDB3B8"/>
</linearGradient>
<linearGradient id="paint22_linear_106_267" x1="162.377" y1="286.376" x2="171.987" y2="295.986" gradientUnits="userSpaceOnUse">
<stop stop-color="#BDB3B8"/>
<stop offset="0.5" stop-color="#D3D0D0"/>
<stop offset="1" stop-color="white"/>
</linearGradient>
<linearGradient id="paint23_linear_106_267" x1="72.9057" y1="301.389" x2="171.482" y2="399.966" gradientUnits="userSpaceOnUse">
<stop stop-color="white"/>
<stop offset="0.5" stop-color="#C9C4C6"/>
<stop offset="1" stop-color="#BFB5B9"/>
</linearGradient>
<linearGradient id="paint24_linear_106_267" x1="157.033" y1="257.641" x2="164.729" y2="265.338" gradientUnits="userSpaceOnUse">
<stop stop-color="white"/>
<stop offset="0.5" stop-color="#E7E7E7"/>
<stop offset="1" stop-color="#BDB3B8"/>
</linearGradient>
<linearGradient id="paint25_linear_106_267" x1="161.32" y1="418.586" x2="185.688" y2="442.954" gradientUnits="userSpaceOnUse">
<stop stop-color="white"/>
<stop offset="1" stop-color="white"/>
</linearGradient>
<linearGradient id="paint26_linear_106_267" x1="303.367" y1="393.346" x2="328.496" y2="418.474" gradientUnits="userSpaceOnUse">
<stop stop-color="white"/>
<stop offset="0.5" stop-color="#D8D6D6"/>
<stop offset="1" stop-color="#BDB3B8"/>
</linearGradient>
<linearGradient id="paint27_linear_106_267" x1="131.814" y1="378.71" x2="156.182" y2="403.079" gradientUnits="userSpaceOnUse">
<stop stop-color="white"/>
<stop offset="1" stop-color="white"/>
</linearGradient>
<linearGradient id="paint28_linear_106_267" x1="319.531" y1="427.44" x2="323.079" y2="430.988" gradientUnits="userSpaceOnUse">
<stop stop-color="white"/>
<stop offset="1" stop-color="white"/>
</linearGradient>
<linearGradient id="paint29_linear_106_267" x1="301.026" y1="395.484" x2="327.676" y2="422.133" gradientUnits="userSpaceOnUse">
<stop stop-color="#BDB3B8"/>
<stop offset="1" stop-color="#BDB3B8"/>
</linearGradient>
<linearGradient id="paint30_linear_106_267" x1="297.738" y1="398.975" x2="326.415" y2="427.652" gradientUnits="userSpaceOnUse">
<stop stop-color="white"/>
<stop offset="0.5" stop-color="#C5BDC0"/>
<stop offset="1" stop-color="#BDB3B8"/>
</linearGradient>
<linearGradient id="paint31_linear_106_267" x1="55.9357" y1="266.534" x2="78.1916" y2="288.79" gradientUnits="userSpaceOnUse">
<stop stop-color="white"/>
<stop offset="1" stop-color="white"/>
</linearGradient>
<linearGradient id="paint32_linear_106_267" x1="26.4279" y1="226.658" x2="48.6838" y2="248.914" gradientUnits="userSpaceOnUse">
<stop stop-color="white"/>
<stop offset="1" stop-color="white"/>
</linearGradient>
<linearGradient id="paint33_linear_106_267" x1="183.376" y1="284.597" x2="191.884" y2="293.105" gradientUnits="userSpaceOnUse">
<stop stop-color="white"/>
<stop offset="1" stop-color="white"/>
</linearGradient>
<linearGradient id="paint34_linear_106_267" x1="160.709" y1="253.964" x2="169.217" y2="262.472" gradientUnits="userSpaceOnUse">
<stop stop-color="white"/>
<stop offset="1" stop-color="white"/>
</linearGradient>
<linearGradient id="paint35_linear_106_267" x1="332.823" y1="416.987" x2="341.646" y2="425.811" gradientUnits="userSpaceOnUse">
<stop stop-color="white"/>
<stop offset="1" stop-color="white"/>
</linearGradient>
<linearGradient id="paint36_linear_106_267" x1="310.155" y1="386.355" x2="318.978" y2="395.179" gradientUnits="userSpaceOnUse">
<stop stop-color="white"/>
<stop offset="1" stop-color="white"/>
</linearGradient>
<linearGradient id="paint37_linear_106_267" x1="246.659" y1="222.937" x2="254.356" y2="230.633" gradientUnits="userSpaceOnUse">
<stop stop-color="#BDB3B8"/>
<stop offset="0.5" stop-color="#E7E7E7"/>
<stop offset="1" stop-color="white"/>
</linearGradient>
<linearGradient id="paint38_linear_106_267" x1="371.467" y1="369.836" x2="384.423" y2="382.791" gradientUnits="userSpaceOnUse">
<stop stop-color="#BDB3B8"/>
<stop offset="0.5" stop-color="#D3D0D0"/>
<stop offset="1" stop-color="white"/>
</linearGradient>
<linearGradient id="paint39_linear_106_267" x1="220.565" y1="211.125" x2="230.175" y2="220.736" gradientUnits="userSpaceOnUse">
<stop stop-color="white"/>
<stop offset="0.5" stop-color="#D3D0D0"/>
<stop offset="1" stop-color="#BDB3B8"/>
</linearGradient>
<linearGradient id="paint40_linear_106_267" x1="308.416" y1="311.165" x2="369.277" y2="372.026" gradientUnits="userSpaceOnUse">
<stop stop-color="#BDB3B8"/>
<stop offset="1" stop-color="#BDB3B8"/>
</linearGradient>
<linearGradient id="paint41_linear_106_267" x1="236.98" y1="213.929" x2="246.323" y2="223.272" gradientUnits="userSpaceOnUse">
<stop stop-color="#BDB3B8"/>
<stop offset="1" stop-color="#BDB3B8"/>
</linearGradient>
<linearGradient id="paint42_linear_106_267" x1="398.373" y1="368.841" x2="398.74" y2="369.208" gradientUnits="userSpaceOnUse">
<stop stop-color="white"/>
<stop offset="1" stop-color="white"/>
</linearGradient>
<linearGradient id="paint43_linear_106_267" x1="368.891" y1="345.266" x2="395.541" y2="371.916" gradientUnits="userSpaceOnUse">
<stop stop-color="#BDB3B8"/>
<stop offset="1" stop-color="#BDB3B8"/>
</linearGradient>
<linearGradient id="paint44_linear_106_267" x1="323.208" y1="275.62" x2="333.584" y2="285.995" gradientUnits="userSpaceOnUse">
<stop stop-color="white"/>
<stop offset="0.5" stop-color="#E7E7E7"/>
<stop offset="1" stop-color="#BDB3B8"/>
</linearGradient>
<linearGradient id="paint45_linear_106_267" x1="399.696" y1="347.501" x2="410.072" y2="357.876" gradientUnits="userSpaceOnUse">
<stop stop-color="#BDB3B8"/>
<stop offset="0.5" stop-color="#E7E7E7"/>
<stop offset="1" stop-color="white"/>
</linearGradient>
<linearGradient id="paint46_linear_106_267" x1="326.764" y1="272.066" x2="327.131" y2="272.433" gradientUnits="userSpaceOnUse">
<stop stop-color="white"/>
<stop offset="1" stop-color="white"/>
</linearGradient>
<linearGradient id="paint47_linear_106_267" x1="331.082" y1="294.392" x2="391.943" y2="355.254" gradientUnits="userSpaceOnUse">
<stop stop-color="#BDB3B8"/>
<stop offset="1" stop-color="#BDB3B8"/>
</linearGradient>
<linearGradient id="paint48_linear_106_267" x1="155.595" y1="136.391" x2="192.906" y2="173.703" gradientUnits="userSpaceOnUse">
<stop stop-color="#BDB3B8"/>
<stop offset="0.5" stop-color="#C7C1C3"/>
<stop offset="1" stop-color="white"/>
</linearGradient>
<linearGradient id="paint49_linear_106_267" x1="323.464" y1="276.099" x2="336.42" y2="289.054" gradientUnits="userSpaceOnUse">
<stop stop-color="white"/>
<stop offset="0.5" stop-color="#D3D0D0"/>
<stop offset="1" stop-color="#BDB3B8"/>
</linearGradient>
<linearGradient id="paint50_linear_106_267" x1="344.82" y1="271.788" x2="350.838" y2="277.805" gradientUnits="userSpaceOnUse">
<stop stop-color="#BDB3B8"/>
<stop offset="0.5" stop-color="#E7E7E7"/>
<stop offset="1" stop-color="white"/>
</linearGradient>
<linearGradient id="paint51_linear_106_267" x1="312.633" y1="246.628" x2="320.147" y2="254.142" gradientUnits="userSpaceOnUse">
<stop stop-color="white"/>
<stop offset="0.5" stop-color="#D3D0D0"/>
<stop offset="1" stop-color="#BDB3B8"/>
</linearGradient>
<linearGradient id="paint52_linear_106_267" x1="321.304" y1="252.986" x2="342.463" y2="274.146" gradientUnits="userSpaceOnUse">
<stop stop-color="#BDB3B8"/>
<stop offset="1" stop-color="#BDB3B8"/>
</linearGradient>
<linearGradient id="paint53_linear_106_267" x1="223.455" y1="131.491" x2="229.473" y2="137.509" gradientUnits="userSpaceOnUse">
<stop stop-color="#BDB3B8"/>
<stop offset="0.5" stop-color="#E7E7E7"/>
<stop offset="1" stop-color="white"/>
</linearGradient>
<linearGradient id="paint54_linear_106_267" x1="173.651" y1="118.335" x2="178.77" y2="123.453" gradientUnits="userSpaceOnUse">
<stop stop-color="white"/>
<stop offset="1" stop-color="white"/>
</linearGradient>
<linearGradient id="paint55_linear_106_267" x1="191.266" y1="106.331" x2="198.78" y2="113.845" gradientUnits="userSpaceOnUse">
<stop stop-color="white"/>
<stop offset="0.5" stop-color="#D3D0D0"/>
<stop offset="1" stop-color="#BDB3B8"/>
</linearGradient>
<linearGradient id="paint56_linear_106_267" x1="199.937" y1="112.689" x2="221.096" y2="133.849" gradientUnits="userSpaceOnUse">
<stop stop-color="#BDB3B8"/>
<stop offset="1" stop-color="#BDB3B8"/>
</linearGradient>
<linearGradient id="paint57_linear_106_267" x1="206.776" y1="95.448" x2="238.969" y2="127.641" gradientUnits="userSpaceOnUse">
<stop stop-color="#689200"/>
<stop offset="0.5" stop-color="#DAD9D9"/>
<stop offset="0.744" stop-color="#C1FA32"/>
<stop offset="1" stop-color="#BDFF19"/>
</linearGradient>
<clipPath id="clip0_106_267">
<rect width="441.251" height="441.251" fill="white" transform="matrix(0.956305 0.292372 0 1 0 10)"/>
</clipPath>
</defs>
</svg>
