<svg width="1104" height="142" viewBox="0 0 1104 142" fill="none" xmlns="http://www.w3.org/2000/svg">
<path d="M233.538 6.50073H233.619L233.696 6.47524L251.685 0.5H413.425L438.509 12.5042L438.526 12.512L438.543 12.5187L446.85 15.7777L446.938 15.8122H447.033H508.484H508.555L508.623 15.7923L519.764 12.5532H585.149L594.831 15.7865L594.908 15.8122H594.989H660.659H660.764L660.86 15.7702L695.709 0.5H862.892L869.74 6.38008L869.881 6.50073H870.066H1035.03H1035.08L1035.12 6.49255L1044.97 4.69016H1065.26L1103.5 21.7409V32.2693L1094.82 33.7005L1094.4 33.7695V34.1938V109.048V109.548H1094.9H1102.84V123.262L1071.58 137.517H864.132H863.632V138.017V141.5H688.35L662.09 126.82L661.976 126.757H661.846H589.187H589.038L588.913 126.838L583.895 130.119H516.775L510.022 126.808L509.918 126.757H509.802H445.714H445.588L445.477 126.817L418.291 141.5H243.006V138.327V137.827H242.506H36.7539L0.5 123.605V109.341H7.64835H8.14835V108.841V94.5976H16.2198H16.7198V94.0976V47.592V47.092H16.2198H8.14835V34.0903V33.5903H7.64835H0.5V19.6411L35.3 6.50073H233.538Z" stroke="#88BF11"/>
<path d="M233.538 6.50073H233.619L233.696 6.47524L251.685 0.5H413.425L438.509 12.5042L438.526 12.512L438.543 12.5187L446.85 15.7777L446.938 15.8122H447.033H508.484H508.555L508.623 15.7923L519.764 12.5532H585.149L594.831 15.7865L594.908 15.8122H594.989H660.659H660.764L660.86 15.7702L695.709 0.5H862.892L869.74 6.38008L869.881 6.50073H870.066H1035.03H1035.08L1035.12 6.49255L1044.97 4.69016H1065.26L1103.5 21.7409V32.2693L1094.82 33.7005L1094.4 33.7695V34.1938V109.048V109.548H1094.9H1102.84V123.262L1071.58 137.517H864.132H863.632V138.017V141.5H688.35L662.09 126.82L661.976 126.757H661.846H589.187H589.038L588.913 126.838L583.895 130.119H516.775L510.022 126.808L509.918 126.757H509.802H445.714H445.588L445.477 126.817L418.291 141.5H243.006V138.327V137.827H242.506H36.7539L0.5 123.605V109.341H7.64835H8.14835V108.841V94.5976H16.2198H16.7198V94.0976V47.592V47.092H16.2198H8.14835V34.0903V33.5903H7.64835H0.5V19.6411L35.3 6.50073H233.538Z" stroke="url(#paint0_linear_214_617)" stroke-opacity="0.26"/>
<defs>
<linearGradient id="paint0_linear_214_617" x1="1067.6" y1="-8.89766" x2="214.811" y2="467.446" gradientUnits="userSpaceOnUse">
<stop stop-color="#333A13"/>
<stop offset="1" stop-color="#FF0000" stop-opacity="0"/>
</linearGradient>
</defs>
</svg>
