<svg width="89" height="29" viewBox="0 0 89 29" fill="none" xmlns="http://www.w3.org/2000/svg">
<path d="M14.0612 12.2499C14.65 12.2499 15.1273 12.7437 15.1273 13.3527V13.77C15.1273 14.6095 14.4694 15.2901 13.6578 15.2901H13.5137C12.0538 15.2901 11.0261 14.7138 10.4306 13.5614C9.47016 14.9722 8.01987 15.6775 6.07973 15.6775C4.74629 15.6775 3.1119 16.6717 3.1119 18.0511V19.6416C3.1119 20.5305 2.41528 21.2511 1.55595 21.2511C0.696622 21.2511 0 20.5305 0 19.6416V1.99695C0 1.10806 0.696622 0.387468 1.55595 0.387468C2.41528 0.387468 3.1119 1.10806 3.1119 1.99695V9.20981C3.1119 10.3027 3.40004 11.1571 3.97632 11.7731C4.55259 12.3692 5.33057 12.6672 6.31024 12.6672C7.42438 12.6672 8.31761 12.3195 8.98993 11.624C9.66226 10.9087 9.99842 9.81585 9.99842 8.34546V1.99695C9.99842 1.10806 10.695 0.387468 11.5544 0.387468C12.4137 0.387468 13.1103 1.10806 13.1103 1.99695V11.2664C13.1103 11.5644 13.1968 11.8029 13.3696 11.9817C13.5425 12.1605 13.773 12.2499 14.0612 12.2499Z" fill="white"/>
<path d="M21.1863 8.94905C21.1863 10.6404 22.5118 12.0115 24.1469 12.0115H27.8135C28.6887 12.0115 29.3983 12.7454 29.3983 13.6508C29.3983 14.5561 28.6887 15.2901 27.8135 15.2901H23.6355C20.4528 15.2901 17.8727 12.6212 17.8727 9.32903V2.10123C17.8727 1.15472 18.6145 0.387427 19.5295 0.387427C20.4445 0.387427 21.1863 1.15472 21.1863 2.10123V8.94905Z" fill="white"/>
<path d="M34.8425 9.20981C34.2304 9.20981 33.7642 9.80278 34.0371 10.3695C34.3209 10.9588 34.7217 11.4465 35.2396 11.8327C36.0656 12.4288 37.0741 12.7268 38.2651 12.7268C39.3716 12.7268 40.2928 12.4505 41.0287 11.8978C41.6578 11.4254 42.5 11.192 43.1712 11.5976C43.9152 12.0473 44.1466 13.0721 43.5231 13.6874C42.1786 15.0142 40.4163 15.6775 38.2362 15.6775C35.8927 15.6775 34.0006 14.9423 32.5599 13.472C31.1192 11.9817 30.3989 10.104 30.3989 7.83877C30.3989 5.61332 31.1096 3.75546 32.5311 2.2652C33.9526 0.755065 35.7775 0 38.0057 0C40.1188 0 41.8476 0.765 43.1922 2.295C44.5561 3.825 45.238 5.68286 45.238 7.86858C45.238 8.6418 44.5675 9.20981 43.82 9.20981H34.8425ZM33.626 6.58695H42.0973C41.886 5.37487 41.3962 4.46085 40.6278 3.84487C39.8786 3.2289 38.995 2.92091 37.9769 2.92091C36.8244 2.92091 35.8639 3.24877 35.0955 3.90448C34.3272 4.5602 33.8373 5.45435 33.626 6.58695Z" fill="white"/>
<path d="M59.3021 1.99695C59.3021 1.10806 59.9987 0.387468 60.8581 0.387468C61.7174 0.387468 62.414 1.10806 62.414 1.99695V13.6806C62.414 14.5695 61.7174 15.2901 60.8581 15.2901C59.9987 15.2901 59.3021 14.5695 59.3021 13.6806V13.1441C58.1304 14.8331 56.4496 15.6775 54.2597 15.6775C52.2811 15.6775 50.5907 14.9225 49.1884 13.4124C47.7862 11.8823 47.085 10.0245 47.085 7.83877C47.085 5.63319 47.7862 3.77533 49.1884 2.2652C50.5907 0.755065 52.2811 0 54.2597 0C56.4496 0 58.1304 0.834545 59.3021 2.50364V1.99695ZM51.4936 11.2664C52.358 12.1605 53.4433 12.6076 54.7495 12.6076C56.0558 12.6076 57.1411 12.1605 58.0055 11.2664C58.8699 10.3523 59.3021 9.20981 59.3021 7.83877C59.3021 6.46773 58.8699 5.33513 58.0055 4.44098C57.1411 3.52695 56.0558 3.06994 54.7495 3.06994C53.4433 3.06994 52.358 3.52695 51.4936 4.44098C50.6291 5.33513 50.1969 6.46773 50.1969 7.83877C50.1969 9.20981 50.6291 10.3523 51.4936 11.2664Z" fill="white"/>
<path d="M69.1531 2.89111C69.7269 1.54483 70.6677 0.688959 71.9755 0.323491C72.8453 0.0804448 73.5904 0.874703 73.5904 1.80664C73.5904 2.78132 72.7727 3.51326 71.8679 3.78545C71.3689 3.93558 70.9057 4.17396 70.4785 4.50059C69.5949 5.1563 69.1531 6.24916 69.1531 7.77916V13.6806C69.1531 14.5695 68.4565 15.2901 67.5971 15.2901C66.7378 15.2901 66.0412 14.5695 66.0412 13.6806V1.99695C66.0412 1.10806 66.7378 0.387468 67.5971 0.387468C68.4565 0.387468 69.1531 1.10806 69.1531 1.99695V2.89111Z" fill="white"/>
<path d="M83.4677 0C85.1197 0 86.4548 0.546428 87.4729 1.63929C88.491 2.73214 89 4.23234 89 6.13987V13.6806C89 14.5695 88.3034 15.2901 87.4441 15.2901C86.5847 15.2901 85.8881 14.5695 85.8881 13.6806V6.46773C85.8881 5.355 85.6 4.50059 85.0237 3.90448C84.4474 3.30838 83.6598 3.01033 82.6609 3.01033C81.566 3.01033 80.6824 3.36799 80.0101 4.08331C79.3378 4.77877 79.0016 5.85176 79.0016 7.30228V13.6806C79.0016 14.5695 78.305 15.2901 77.4456 15.2901C76.5863 15.2901 75.8897 14.5695 75.8897 13.6806V1.99695C75.8897 1.10806 76.5863 0.387468 77.4456 0.387468C78.305 0.387468 79.0016 1.10806 79.0016 1.99695V2.295C79.9428 0.765 81.4315 0 83.4677 0Z" fill="white"/>
<path d="M74.1134 22.9293H73.0998C73.0399 22.6277 72.935 22.3628 72.7851 22.1345C72.638 21.9062 72.4582 21.7145 72.2457 21.5595C72.0359 21.4017 71.8029 21.2833 71.5468 21.2044C71.2907 21.1255 71.0237 21.0861 70.7458 21.0861C70.239 21.0861 69.7799 21.2185 69.3685 21.4834C68.9598 21.7484 68.6342 22.1387 68.3917 22.6545C68.1519 23.1702 68.0321 23.8029 68.0321 24.5526C68.0321 25.3023 68.1519 25.935 68.3917 26.4508C68.6342 26.9666 68.9598 27.3569 69.3685 27.6218C69.7799 27.8867 70.239 28.0192 70.7458 28.0192C71.0237 28.0192 71.2907 27.9798 71.5468 27.9008C71.8029 27.8219 72.0359 27.705 72.2457 27.55C72.4582 27.3921 72.638 27.1991 72.7851 26.9708C72.935 26.7397 73.0399 26.4748 73.0998 26.176H74.1134C74.0371 26.6185 73.8982 27.0145 73.6965 27.3639C73.4949 27.7134 73.2442 28.0108 72.9445 28.256C72.6448 28.4983 72.3083 28.6829 71.9351 28.8098C71.5645 28.9366 71.1681 29 70.7458 29C70.0319 29 69.3971 28.8196 68.8413 28.4589C68.2854 28.0981 67.8481 27.5852 67.5294 26.9201C67.2106 26.2549 67.0512 25.4658 67.0512 24.5526C67.0512 23.6395 67.2106 22.8503 67.5294 22.1852C67.8481 21.5201 68.2854 21.0071 68.8413 20.6464C69.3971 20.2856 70.0319 20.1053 70.7458 20.1053C71.1681 20.1053 71.5645 20.1687 71.9351 20.2955C72.3083 20.4223 72.6448 20.6083 72.9445 20.8535C73.2442 21.0959 73.4949 21.3918 73.6965 21.7413C73.8982 22.088 74.0371 22.484 74.1134 22.9293Z" fill="white"/>
<path d="M75.7512 28.8816V20.2236H80.8027V21.1537H76.7648V24.0791H80.5411V25.0092H76.7648V27.9516H80.8681V28.8816H75.7512Z" fill="white"/>
<path d="M82.1718 21.1537V20.2236H88.4493V21.1537H85.8173V28.8816H84.8038V21.1537H82.1718Z" fill="white"/>
</svg>
