<svg width="230" height="32" viewBox="0 0 230 32" fill="none" xmlns="http://www.w3.org/2000/svg">
<path d="M25.0418 22.3873L30.4667 16.9421L28.6548 15.1234L23.2299 20.5686L25.0418 22.3873Z" fill="#BDFF19"/>
<path d="M24.0324 23.4344L26.2136 21.2449C25.2035 20.2309 23.8962 19.8991 23.2939 20.5037C22.6916 21.1083 23.0227 22.4203 24.0324 23.4344Z" fill="#BDFF19"/>
<path d="M12.3602 28.8413L15.507 32C16.8048 30.6973 17.1525 28.9341 16.2836 28.0618C15.4147 27.1896 13.658 27.5391 12.3602 28.8413Z" fill="#BDFF19"/>
<path d="M23.7986 9.32455L8.81685 24.3625C8.56279 24.6175 8.56279 25.0309 8.81685 25.2859L10.2555 26.73C10.5095 26.985 10.9214 26.985 11.1755 26.73L26.1572 11.692C26.4113 11.437 26.4113 11.0236 26.1572 10.7686L24.7186 9.32455C24.4645 9.06954 24.0526 9.06954 23.7986 9.32455Z" fill="#BDFF19"/>
<path d="M16.3669 18.9108C18.8926 21.5824 20.097 24.9045 19.8286 27.7052C22.0153 24.6621 21.5376 20.0648 18.5211 16.874C15.5277 13.7077 11.0487 12.9998 7.94091 15.0072C10.6967 14.9076 13.8745 16.2751 16.3669 18.9108Z" fill="#BDFF19"/>
<path d="M14.097 1.40672L0.414045 15.141C0.159988 15.396 0.159988 15.8094 0.414045 16.0645L1.85267 17.5085C2.10672 17.7635 2.51863 17.7635 2.77269 17.5085L16.4556 3.77421C16.7097 3.5192 16.7097 3.10575 16.4556 2.85074L15.017 1.40672C14.763 1.15171 14.351 1.15171 14.097 1.40672Z" fill="#BDFF19"/>
<path d="M16.2295 28.0144L2.67633 14.4104C2.25275 13.9852 1.56597 13.9852 1.14239 14.4104L0.317691 15.2381C-0.105897 15.6633 -0.105897 16.3527 0.317691 16.7778L13.8709 30.3819C14.2945 30.807 14.9812 30.807 15.4048 30.3819L16.2295 29.5541C16.6531 29.1289 16.6531 28.4396 16.2295 28.0144Z" fill="#BDFF19"/>
<path d="M15.5023 0L12.3553 3.15876C13.6603 4.46858 15.4226 4.82329 16.2916 3.95102C17.1606 3.07875 16.8072 1.30982 15.5023 0Z" fill="#BDFF19"/>
<path d="M13.0988 15.7308L18.3295 10.4805C18.6545 10.1544 18.6545 9.62558 18.3295 9.29944L17.6943 8.66182C17.3694 8.33567 16.8426 8.33567 16.5177 8.66182L11.2869 13.9122C10.962 14.2383 10.962 14.7671 11.2869 15.0932L11.9222 15.7308C12.2471 16.057 12.7739 16.057 13.0988 15.7308Z" fill="#BDFF19"/>
<path d="M24.6427 12.8948L28.7807 17.0483C29.2187 17.4879 29.9289 17.4879 30.3669 17.0483L30.5925 16.8218C31.0306 16.3821 31.0306 15.6692 30.5925 15.2296L26.4546 11.0761C26.0166 10.6364 25.3064 10.6364 24.8683 11.0761L24.6427 11.3026C24.2047 11.7423 24.2047 12.4551 24.6427 12.8948Z" fill="#BDFF19"/>
<path d="M38.1324 27.2395V7.29644H51.396L54.3884 10.3001V15.0896L53.0405 16.4697L55.1702 18.4721V24.2358L52.1778 27.2395H38.1324ZM43.1736 15.0355H48.6193L49.5628 14.0884V12.086L48.6193 11.1389H43.1736V15.0355ZM43.1736 23.397H49.1854L50.1289 22.4499V19.5004L49.1854 18.5533H43.1736V23.397Z" fill="white"/>
<path d="M58.2723 27.2395V7.29644H73.3692V11.4095H63.3136V15.0896H72.3717V18.9051H63.3136V23.1264H73.3692V27.2395H58.2723Z" fill="white"/>
<path d="M81.3405 27.2395V20.258L79.3456 18.5262L74.7087 7.29644H80.5048L83.3624 16.4697H84.3329L87.1905 7.29644H92.9866L88.3497 18.5262L86.3548 20.258V27.2395H81.3405Z" fill="white"/>
<path d="M96.4247 27.2395L93.4323 24.2358V10.3001L96.4247 7.29644H108.071L111.063 10.3001V24.2358L108.071 27.2395H96.4247ZM99.444 23.397H105.105L106.049 22.4499V12.086L105.051 11.1389H99.444L98.4735 12.086V22.4499L99.444 23.397Z" fill="white"/>
<path d="M114.296 27.2395V7.29644H119.795L126.481 19.2568V7.29644H131.172V27.2395H126.481L119.957 15.5497H118.987V27.2395H114.296Z" fill="white"/>
<path d="M134.936 27.2395V7.29644H147.903L152.028 11.4366V23.0993L147.903 27.2395H134.936ZM139.977 23.397H145.719L147.148 21.9628V12.5731L145.719 11.1389H139.977V23.397Z" fill="white"/>
<path d="M154.997 27.2395V7.29644H160.038V14.7108H166.805V7.29644H171.846V27.2395H166.805V18.6615H160.038V27.2395H154.997Z" fill="white"/>
<path d="M173.724 27.2395L179.547 7.29644H187.742L193.565 27.2395H188.227L187.23 23.2617H180.059L179.061 27.2395H173.724ZM181.056 19.3651H186.232L184.13 11.1119H183.159L181.056 19.3651Z" fill="white"/>
<path d="M197.625 27.2395L194.632 24.2358V10.3001L197.625 7.29644H207.842L210.861 10.3001V14.332H205.955V12.086L204.985 11.1389H200.644L199.674 12.086V22.4499L200.644 23.397H205.146L206.144 22.4499V20.1769H211.023V24.2358L208.031 27.2395H197.625Z" fill="white"/>
<path d="M213.232 27.2395V7.29644H218.273V15.2249L224.42 7.29644H230L222.991 15.9826L230 27.2395H224.635L220.16 19.5274L218.273 21.8546V27.2395H213.232Z" fill="white"/>
</svg>
