<svg width="1440" height="131" viewBox="0 0 1440 131" fill="none" xmlns="http://www.w3.org/2000/svg">
<mask id="path-1-inside-1_469_1003" fill="white">
<path d="M489.943 13.5588L476.207 23.1161L462.421 13.5588H489.943ZM-486.284 35.5504H-463.924L-464.042 35.6167H-486.167L-486.284 35.5504ZM-2031.96 35.0215L-2006.3 17.1304H-1962.95L-1909.39 56.1532L-1909.31 56.0871V56.1532L-1878.46 35.6167L-486.128 35.6167L-475.045 43.322L-493.555 56.1532H-456.614L-475.045 43.322L-463.963 35.6167L-189.851 35.6167L-174.131 24.6373L-143.085 3.04246L-122.413 17.428L-17.6023 17.0973H-0.782715L41.6609 46.6289L154.489 46.6289L178.815 29.7302L427.913 29.8292L447.26 43.289L476.255 23.083L485.95 29.8292L1039.99 29.7302L1082.76 0L1163.42 56.1201L1193.8 34.9882H1206.68L1213.72 39.8827L1202.54 47.6543H1224.88L1213.76 39.8827L1220.66 35.0875L1448.52 34.9882V131L-3342 131V34.9882L-2032.12 34.9882L-2031.96 35.0215ZM-17.2881 40.9078H-11.4719V36.8732H-17.2881V40.9078ZM-17.2881 32.8057H-11.4719V28.7711H-17.2881V32.8057ZM-62.325 40.9078H-56.5479V28.7711H-62.325V40.9078ZM-84.6077 32.8057H-78.8308V28.7711H-84.6077V32.8057ZM-1696.23 56.1201H-1678.78V43.9835H-1696.23V56.1201ZM-1754.35 56.1201H-1748.54V43.9835H-1754.35V56.1201ZM-1795.03 56.1201H-1789.25V43.9835H-1795.03V56.1201ZM-1803.83 56.1201H-1798.01V43.9835H-1803.83V56.1201Z"/>
<path d="M1885.04 19.0268L1871.3 28.5841L1871.3 28.5789L1857.52 19.0268H1885.04Z"/>
<path d="M1871.3 28.5841L1871.35 28.5511L1881.05 35.2973L2875.23 35.1982L2904.63 16.1643L2941.96 16.1643L2998.67 56.12L3029.04 34.9881H3041.92L3048.96 39.8823L3037.79 47.6539H3060.13L3049.01 39.8823L3055.9 35.0872L3161.94 34.9881L3201.33 66.7466L3370.32 66.7466V131L1448.62 131V105.025L1448.14 46.6288V35.1982L1823.01 35.2973L1842.36 43.2886L1871.3 28.5789L1871.3 28.5841Z"/>
<path d="M3386.04 66.8647H3378.18V100.924H3386.04V66.8647Z"/>
<path d="M3417.47 66.8647H3409.61V100.924H3417.47V66.8647Z"/>
<path d="M3452.84 66.8647L3444.98 66.8647V100.924H3452.84V66.8647Z"/>
<path d="M3437.12 66.8647H3425.33V100.924L3437.12 100.924V66.8647Z"/>
<path d="M3397.82 66.8647H3393.89V100.924H3397.82V66.8647Z"/>
<path d="M3460.7 66.8647H3456.77V100.924H3460.7V66.8647Z"/>
<path d="M3488.21 66.8647H3484.28V100.924H3488.21V66.8647Z"/>
<path d="M3500 66.8647H3496.07V100.924H3500V66.8647Z"/>
</mask>
<path d="M489.943 13.5588L476.207 23.1161L462.421 13.5588H489.943ZM-486.284 35.5504H-463.924L-464.042 35.6167H-486.167L-486.284 35.5504ZM-2031.96 35.0215L-2006.3 17.1304H-1962.95L-1909.39 56.1532L-1909.31 56.0871V56.1532L-1878.46 35.6167L-486.128 35.6167L-475.045 43.322L-493.555 56.1532H-456.614L-475.045 43.322L-463.963 35.6167L-189.851 35.6167L-174.131 24.6373L-143.085 3.04246L-122.413 17.428L-17.6023 17.0973H-0.782715L41.6609 46.6289L154.489 46.6289L178.815 29.7302L427.913 29.8292L447.26 43.289L476.255 23.083L485.95 29.8292L1039.99 29.7302L1082.76 0L1163.42 56.1201L1193.8 34.9882H1206.68L1213.72 39.8827L1202.54 47.6543H1224.88L1213.76 39.8827L1220.66 35.0875L1448.52 34.9882V131L-3342 131V34.9882L-2032.12 34.9882L-2031.96 35.0215ZM-17.2881 40.9078H-11.4719V36.8732H-17.2881V40.9078ZM-17.2881 32.8057H-11.4719V28.7711H-17.2881V32.8057ZM-62.325 40.9078H-56.5479V28.7711H-62.325V40.9078ZM-84.6077 32.8057H-78.8308V28.7711H-84.6077V32.8057ZM-1696.23 56.1201H-1678.78V43.9835H-1696.23V56.1201ZM-1754.35 56.1201H-1748.54V43.9835H-1754.35V56.1201ZM-1795.03 56.1201H-1789.25V43.9835H-1795.03V56.1201ZM-1803.83 56.1201H-1798.01V43.9835H-1803.83V56.1201Z" fill="black"/>
<path d="M1885.04 19.0268L1871.3 28.5841L1871.3 28.5789L1857.52 19.0268H1885.04Z" fill="black"/>
<path d="M1871.3 28.5841L1871.35 28.5511L1881.05 35.2973L2875.23 35.1982L2904.63 16.1643L2941.96 16.1643L2998.67 56.12L3029.04 34.9881H3041.92L3048.96 39.8823L3037.79 47.6539H3060.13L3049.01 39.8823L3055.9 35.0872L3161.94 34.9881L3201.33 66.7466L3370.32 66.7466V131L1448.62 131V105.025L1448.14 46.6288V35.1982L1823.01 35.2973L1842.36 43.2886L1871.3 28.5789L1871.3 28.5841Z" fill="black"/>
<path d="M3386.04 66.8647H3378.18V100.924H3386.04V66.8647Z" fill="black"/>
<path d="M3417.47 66.8647H3409.61V100.924H3417.47V66.8647Z" fill="black"/>
<path d="M3452.84 66.8647L3444.98 66.8647V100.924H3452.84V66.8647Z" fill="black"/>
<path d="M3437.12 66.8647H3425.33V100.924L3437.12 100.924V66.8647Z" fill="black"/>
<path d="M3397.82 66.8647H3393.89V100.924H3397.82V66.8647Z" fill="black"/>
<path d="M3460.7 66.8647H3456.77V100.924H3460.7V66.8647Z" fill="black"/>
<path d="M3488.21 66.8647H3484.28V100.924H3488.21V66.8647Z" fill="black"/>
<path d="M3500 66.8647H3496.07V100.924H3500V66.8647Z" fill="black"/>
<path d="M1870.64 29.5955L1870.63 29.5903L1871.96 27.5675L1871.97 27.5726L1870.64 29.5955ZM489.943 13.5588V11.1419H497.648L491.323 15.5427L489.943 13.5588ZM476.207 23.1161L477.588 25.1L476.21 26.0588L474.83 25.1024L476.207 23.1161ZM462.421 13.5588L461.044 15.5451L454.693 11.1419H462.421V13.5588ZM-486.284 35.5504L-487.473 37.6549L-495.479 33.1335H-486.284V35.5504ZM-463.924 35.5504V33.1335H-454.682L-462.74 37.6579L-463.924 35.5504ZM-464.042 35.6167L-462.858 37.7242L-463.409 38.0337H-464.042V35.6167ZM-486.167 35.6167V38.0337H-486.802L-487.356 37.7212L-486.167 35.6167ZM-2031.96 35.0215L-2030.58 37.0042L-2031.44 37.6031L-2032.46 37.3858L-2031.96 35.0215ZM-2006.3 17.1304L-2007.68 15.1477L-2007.06 14.7134H-2006.3V17.1304ZM-1962.95 17.1304V14.7134H-1962.16L-1961.53 15.1769L-1962.95 17.1304ZM-1909.39 56.1532L-1907.83 58.006L-1909.28 59.219L-1910.81 58.1067L-1909.39 56.1532ZM-1909.31 56.0871L-1910.86 54.2342L-1906.89 50.9101V56.0871H-1909.31ZM-1909.31 56.1532L-1907.97 58.1651L-1911.73 60.6656V56.1532H-1909.31ZM-1878.46 35.6167L-1879.8 33.6048L-1879.19 33.1998H-1878.46V35.6167ZM-486.128 35.6167V33.1998H-485.37L-484.748 33.6323L-486.128 35.6167ZM-493.555 56.1532V58.5701H-501.284L-494.932 54.1668L-493.555 56.1532ZM-456.614 56.1532L-455.233 54.1695L-448.912 58.5701H-456.614V56.1532ZM-463.963 35.6167L-465.343 33.6323L-464.72 33.1998H-463.963V35.6167ZM-189.851 35.6167L-188.467 37.5982L-189.09 38.0337H-189.851V35.6167ZM-174.131 24.6373L-175.515 22.6558L-175.511 22.6531L-174.131 24.6373ZM-143.085 3.04246L-144.465 1.05829L-143.084 0.0980835L-141.704 1.05862L-143.085 3.04246ZM-122.413 17.428L-122.406 19.8449L-123.168 19.8474L-123.794 19.4118L-122.413 17.428ZM-17.6023 17.0973L-17.6099 14.6804H-17.6023V17.0973ZM-0.782715 17.0973V14.6804H-0.0246582L0.597656 15.1133L-0.782715 17.0973ZM41.6609 46.6289V49.0459H40.9026L40.2805 48.6129L41.6609 46.6289ZM154.489 46.6289L155.867 48.6139L155.246 49.0459H154.489V46.6289ZM178.815 29.7302L177.436 27.7452L178.058 27.3129L178.816 27.3132L178.815 29.7302ZM427.913 29.8292L427.914 27.4123L428.671 27.4126L429.293 27.8452L427.913 29.8292ZM447.26 43.289L448.642 45.2719L447.261 46.2341L445.88 45.273L447.26 43.289ZM476.255 23.083L474.873 21.1001L476.254 20.1378L477.635 21.0991L476.255 23.083ZM485.95 29.8292L485.95 32.2462L485.192 32.2463L484.569 31.8131L485.95 29.8292ZM1039.99 29.7302L1041.37 31.7149L1040.74 32.147L1039.99 32.1471L1039.99 29.7302ZM1082.76 0L1081.38 -1.9847L1082.76 -2.94386L1084.14 -1.98399L1082.76 0ZM1163.42 56.1201L1164.81 58.1042L1163.42 59.0645L1162.04 58.1041L1163.42 56.1201ZM1193.8 34.9882L1192.42 33.0042L1193.04 32.5713H1193.8V34.9882ZM1206.68 34.9882V32.5713H1207.44L1208.06 33.0042L1206.68 34.9882ZM1213.72 39.8827L1215.1 37.8987L1217.95 39.8829L1215.1 41.8668L1213.72 39.8827ZM1202.54 47.6543V50.0712H1194.84L1201.16 45.6701L1202.54 47.6543ZM1224.88 47.6543L1226.27 45.6731L1232.56 50.0712H1224.88V47.6543ZM1213.76 39.8827L1212.38 41.8639L1209.54 39.8782L1212.38 37.8986L1213.76 39.8827ZM1220.66 35.0875L1219.28 33.1034L1219.9 32.6709L1220.66 32.6706L1220.66 35.0875ZM1448.52 34.9882L1448.52 32.5713L1450.94 32.5702V34.9882H1448.52ZM1448.52 131H1450.94V133.417H1448.52V131ZM-3342 131V133.417H-3344.42V131H-3342ZM-3342 34.9882H-3344.42V32.5713H-3342V34.9882ZM-2032.12 34.9882V32.5713L-2031.86 32.5713L-2031.62 32.6238L-2032.12 34.9882ZM-17.2881 40.9078V43.3247H-19.7048V40.9078H-17.2881ZM-11.4719 40.9078H-9.05493V43.3247H-11.4719V40.9078ZM-11.4719 36.8732V34.4563H-9.05493V36.8732H-11.4719ZM-17.2881 36.8732H-19.7048V34.4563H-17.2881V36.8732ZM-17.2881 32.8057V35.2226H-19.7048V32.8057H-17.2881ZM-11.4719 32.8057H-9.05493V35.2226H-11.4719V32.8057ZM-11.4719 28.7711V26.3542H-9.05493V28.7711H-11.4719ZM-17.2881 28.7711H-19.7048V26.3542H-17.2881V28.7711ZM-62.325 40.9078V43.3247H-64.7419V40.9078H-62.325ZM-56.5479 40.9078H-54.1309V43.3247H-56.5479V40.9078ZM-56.5479 28.7711V26.3542H-54.1309V28.7711H-56.5479ZM-62.325 28.7711H-64.7419V26.3542H-62.325V28.7711ZM-84.6077 32.8057V35.2226H-87.0247V32.8057H-84.6077ZM-78.8308 32.8057H-76.4141V35.2226H-78.8308V32.8057ZM-78.8308 28.7711V26.3542H-76.4141V28.7711H-78.8308ZM-84.6077 28.7711H-87.0247V26.3542H-84.6077V28.7711ZM-1696.23 56.1201V58.5371H-1698.65V56.1201H-1696.23ZM-1678.78 56.1201H-1676.36V58.5371H-1678.78V56.1201ZM-1678.78 43.9835V41.5666H-1676.36V43.9835H-1678.78ZM-1696.23 43.9835H-1698.65V41.5666H-1696.23V43.9835ZM-1754.35 56.1201V58.5371H-1756.77V56.1201H-1754.35ZM-1748.54 56.1201H-1746.12V58.5371H-1748.54V56.1201ZM-1748.54 43.9835V41.5666H-1746.12V43.9835H-1748.54ZM-1754.35 43.9835H-1756.77V41.5666H-1754.35V43.9835ZM-1795.03 56.1201V58.5371H-1797.44V56.1201H-1795.03ZM-1789.25 56.1201H-1786.83V58.5371H-1789.25V56.1201ZM-1789.25 43.9835V41.5666H-1786.83V43.9835H-1789.25ZM-1795.03 43.9835H-1797.44V41.5666H-1795.03V43.9835ZM-1803.83 56.1201V58.5371H-1806.25V56.1201H-1803.83ZM-1798.01 56.1201H-1795.6V58.5371H-1798.01V56.1201ZM-1798.01 43.9835V41.5666H-1795.6V43.9835H-1798.01ZM-1803.83 43.9835H-1806.25V41.5666H-1803.83V43.9835ZM1885.04 19.0268V16.6099H1892.75L1886.42 21.011L1885.04 19.0268ZM1871.3 28.5841L1872.68 30.5682L1869.91 26.6082L1871.3 28.5841ZM1871.3 28.5789L1872.67 26.5928L1876 28.8994L1872.39 30.7335L1871.3 28.5789ZM1857.52 19.0268L1856.14 21.013L1849.8 16.6099H1857.52V19.0268ZM1871.35 28.5511L1869.96 26.5752L1871.34 25.6008L1872.73 26.5669L1871.35 28.5511ZM1881.05 35.2973L1881.05 37.7142L1880.29 37.7143L1879.67 37.2815L1881.05 35.2973ZM2875.23 35.1982L2876.54 37.2272L2875.94 37.6151L2875.23 37.6152L2875.23 35.1982ZM2904.63 16.1643L2903.32 14.1354L2903.91 13.7474H2904.63V16.1643ZM2941.96 16.1643V13.7474H2942.73L2943.35 14.1886L2941.96 16.1643ZM2998.67 56.12L3000.05 58.104L2998.66 59.0704L2997.28 58.0958L2998.67 56.12ZM3029.04 34.9881L3027.66 33.0041L3028.28 32.5711H3029.04V34.9881ZM3041.92 34.9881V32.5711H3042.68L3043.3 33.0037L3041.92 34.9881ZM3048.96 39.8823L3050.34 37.8979L3053.19 39.882L3050.34 41.8664L3048.96 39.8823ZM3037.79 47.6539V50.0708H3030.08L3036.41 45.6697L3037.79 47.6539ZM3060.13 47.6539L3061.51 45.6727L3067.81 50.0708H3060.13V47.6539ZM3049.01 39.8823L3047.62 41.8635L3044.78 39.8784L3047.63 37.8986L3049.01 39.8823ZM3055.9 35.0872L3054.51 33.1034L3055.14 32.6709L3055.89 32.6702L3055.9 35.0872ZM3161.94 34.9881L3161.94 32.5711L3162.79 32.5703L3163.46 33.1065L3161.94 34.9881ZM3201.33 66.7466V69.1635H3200.48L3199.81 68.6281L3201.33 66.7466ZM3370.32 66.7466V64.3296H3372.73V66.7466H3370.32ZM3370.32 131H3372.73V133.417H3370.32V131ZM1448.62 131V133.417H1446.2V131H1448.62ZM1448.62 105.025L1451.03 105.005L1451.03 105.015V105.025H1448.62ZM1448.14 46.6288L1445.72 46.6485V46.6386V46.6288H1448.14ZM1448.14 35.1982H1445.72V32.7806L1448.14 32.7813L1448.14 35.1982ZM1823.01 35.2973L1823.01 32.8803L1823.49 32.8805L1823.94 33.0635L1823.01 35.2973ZM1842.36 43.2886L1843.45 45.4432L1842.46 45.9468L1841.43 45.5224L1842.36 43.2886ZM3386.04 66.8647V64.4477H3388.45V66.8647H3386.04ZM3378.18 66.8647H3375.76V64.4477H3378.18V66.8647ZM3378.18 100.924V103.341H3375.76V100.924H3378.18ZM3386.04 100.924H3388.45V103.341H3386.04V100.924ZM3417.47 66.8647V64.4477H3419.89V66.8647H3417.47ZM3409.61 66.8647H3407.19V64.4477H3409.61V66.8647ZM3409.61 100.924V103.341H3407.19V100.924H3409.61ZM3417.47 100.924H3419.89V103.341H3417.47V100.924ZM3452.84 66.8647V64.4477H3455.26V66.8647H3452.84ZM3444.98 66.8647H3442.56V64.4477H3444.98V66.8647ZM3444.98 100.924V103.341H3442.56V100.924H3444.98ZM3452.84 100.924H3455.26V103.341H3452.84V100.924ZM3437.12 66.8647V64.4477H3439.54V66.8647H3437.12ZM3425.33 66.8647H3422.91V64.4477H3425.33V66.8647ZM3425.33 100.924V103.341H3422.91V100.924H3425.33ZM3437.12 100.924H3439.54V103.341H3437.12V100.924ZM3397.82 66.8647V64.4477H3400.24V66.8647H3397.82ZM3393.89 66.8647H3391.48V64.4477H3393.89V66.8647ZM3393.89 100.924V103.341H3391.48V100.924H3393.89ZM3397.82 100.924H3400.24V103.341H3397.82V100.924ZM3460.7 66.8647V64.4477H3463.12V66.8647H3460.7ZM3456.77 66.8647H3454.35V64.4477H3456.77V66.8647ZM3456.77 100.924V103.341H3454.35V100.924H3456.77ZM3460.7 100.924H3463.12V103.341H3460.7V100.924ZM3488.21 66.8647V64.4477H3490.63V66.8647H3488.21ZM3484.28 66.8647H3481.86V64.4477H3484.28V66.8647ZM3484.28 100.924V103.341H3481.86V100.924H3484.28ZM3488.21 100.924H3490.63V103.341H3488.21V100.924ZM3500 66.8647V64.4477H3502.42V66.8647H3500ZM3496.07 66.8647H3493.65V64.4477H3496.07V66.8647ZM3496.07 100.924V103.341H3493.65V100.924H3496.07ZM3500 100.924H3502.42V103.341H3500V100.924ZM491.323 15.5427L477.588 25.1L474.827 21.1322L488.562 11.5749L491.323 15.5427ZM474.83 25.1024L461.044 15.5451L463.798 11.5725L477.584 21.1298L474.83 25.1024ZM462.421 11.1419H489.943V15.9757H462.421V11.1419ZM-486.284 33.1335H-463.924V37.9673H-486.284V33.1335ZM-462.74 37.6579L-462.858 37.7242L-465.225 33.5092L-465.107 33.4429L-462.74 37.6579ZM-464.042 38.0337H-486.167V33.1998H-464.042V38.0337ZM-487.356 37.7212L-487.473 37.6549L-485.096 33.4459L-484.979 33.5122L-487.356 37.7212ZM-2033.34 33.0388L-2007.68 15.1477L-2004.92 19.113L-2030.58 37.0042L-2033.34 33.0388ZM-2006.3 14.7134H-1962.95V19.5473H-2006.3V14.7134ZM-1961.53 15.1769L-1907.96 54.1996L-1910.81 58.1067L-1964.38 19.0839L-1961.53 15.1769ZM-1910.94 54.3003L-1910.86 54.2342L-1907.76 57.94L-1907.83 58.006L-1910.94 54.3003ZM-1906.89 56.0871V56.1532H-1911.73V56.0871H-1906.89ZM-1910.65 54.1412L-1879.8 33.6048L-1877.12 37.6286L-1907.97 58.1651L-1910.65 54.1412ZM-1878.46 33.1998L-486.128 33.1998V38.0337L-1878.46 38.0337V33.1998ZM-484.748 33.6323L-473.665 41.3375L-476.425 45.3064L-487.508 37.6012L-484.748 33.6323ZM-473.668 45.3083L-492.178 58.1395L-494.932 54.1668L-476.422 41.3356L-473.668 45.3083ZM-493.555 53.7362H-456.614V58.5701H-493.555V53.7362ZM-457.995 58.1367L-476.426 45.3056L-473.664 41.3384L-455.233 54.1695L-457.995 58.1367ZM-476.425 41.3376L-465.343 33.6323L-462.583 37.6011L-473.665 45.3064L-476.425 41.3376ZM-463.963 33.1998L-189.851 33.1998V38.0337L-463.963 38.0337V33.1998ZM-191.235 33.6352L-175.515 22.6558L-172.747 26.6188L-188.467 37.5982L-191.235 33.6352ZM-175.511 22.6531L-144.465 1.05829L-141.705 5.02662L-172.751 26.6215L-175.511 22.6531ZM-141.704 1.05862L-121.033 15.4442L-123.794 19.4118L-144.465 5.02629L-141.704 1.05862ZM-122.421 15.0111L-17.6099 14.6804L-17.5947 19.5142L-122.406 19.8449L-122.421 15.0111ZM-17.6023 14.6804H-0.782715V19.5142H-17.6023V14.6804ZM0.597656 15.1133L43.0413 44.645L40.2805 48.6129L-2.16309 19.0813L0.597656 15.1133ZM41.6609 44.212L154.489 44.212V49.0459L41.6609 49.0459V44.212ZM153.11 44.6439L177.436 27.7452L180.194 31.7152L155.867 48.6139L153.11 44.6439ZM178.816 27.3132L427.914 27.4123L427.912 32.2462L178.814 32.1471L178.816 27.3132ZM429.293 27.8452L448.64 41.3049L445.88 45.273L426.532 31.8133L429.293 27.8452ZM445.878 41.306L474.873 21.1001L477.637 25.066L448.642 45.2719L445.878 41.306ZM477.635 21.0991L487.33 27.8454L484.569 31.8131L474.875 25.0669L477.635 21.0991ZM485.949 27.4123L1039.99 27.3132L1039.99 32.1471L485.95 32.2462L485.949 27.4123ZM1038.61 27.7455L1081.38 -1.9847L1084.14 1.9847L1041.37 31.7149L1038.61 27.7455ZM1084.14 -1.98399L1164.81 54.1361L1162.04 58.1041L1081.38 1.98399L1084.14 -1.98399ZM1162.04 54.1361L1192.42 33.0042L1195.18 36.9722L1164.81 58.1042L1162.04 54.1361ZM1193.8 32.5713H1206.68V37.4051H1193.8V32.5713ZM1208.06 33.0042L1215.1 37.8987L1212.34 41.8666L1205.3 36.9722L1208.06 33.0042ZM1215.1 41.8668L1203.92 49.6384L1201.16 45.6701L1212.34 37.8985L1215.1 41.8668ZM1202.54 45.2373H1224.88V50.0712H1202.54V45.2373ZM1223.5 49.6354L1212.38 41.8639L1215.15 37.9015L1226.27 45.6731L1223.5 49.6354ZM1212.38 37.8986L1219.28 33.1034L1222.04 37.0716L1215.14 41.8668L1212.38 37.8986ZM1220.66 32.6706L1448.52 32.5713L1448.53 37.4051L1220.66 37.5045L1220.66 32.6706ZM1450.94 34.9882V131H1446.11V34.9882H1450.94ZM1448.52 133.417L-3342 133.417V128.583L1448.52 128.583V133.417ZM-3344.42 131V34.9882H-3339.58V131H-3344.42ZM-3342 32.5713L-2032.12 32.5713V37.4051L-3342 37.4051V32.5713ZM-2031.62 32.6238L-2031.46 32.6571L-2032.46 37.3858L-2032.62 37.3526L-2031.62 32.6238ZM-17.2881 38.4908H-11.4719V43.3247H-17.2881V38.4908ZM-13.8889 40.9078V36.8732H-9.05493V40.9078H-13.8889ZM-11.4719 39.2902H-17.2881V34.4563H-11.4719V39.2902ZM-14.8711 36.8732V40.9078H-19.7048V36.8732H-14.8711ZM-17.2881 30.3887H-11.4719V35.2226H-17.2881V30.3887ZM-13.8889 32.8057V28.7711H-9.05493V32.8057H-13.8889ZM-11.4719 31.1881H-17.2881V26.3542H-11.4719V31.1881ZM-14.8711 28.7711V32.8057H-19.7048V28.7711H-14.8711ZM-62.325 38.4908H-56.5479V43.3247H-62.325V38.4908ZM-58.9648 40.9078V28.7711H-54.1309V40.9078H-58.9648ZM-56.5479 31.1881H-62.325V26.3542H-56.5479V31.1881ZM-59.908 28.7711V40.9078H-64.7419V28.7711H-59.908ZM-84.6077 30.3887H-78.8308V35.2226H-84.6077V30.3887ZM-81.2478 32.8057V28.7711H-76.4141V32.8057H-81.2478ZM-78.8308 31.1881H-84.6077V26.3542H-78.8308V31.1881ZM-82.1907 28.7711V32.8057H-87.0247V28.7711H-82.1907ZM-1696.23 53.7032H-1678.78V58.5371H-1696.23V53.7032ZM-1681.2 56.1201V43.9835H-1676.36V56.1201H-1681.2ZM-1678.78 46.4005H-1696.23V41.5666H-1678.78V46.4005ZM-1693.81 43.9835V56.1201H-1698.65V43.9835H-1693.81ZM-1754.35 53.7032H-1748.54V58.5371H-1754.35V53.7032ZM-1750.95 56.1201V43.9835H-1746.12V56.1201H-1750.95ZM-1748.54 46.4005H-1754.35V41.5666H-1748.54V46.4005ZM-1751.94 43.9835V56.1201H-1756.77V43.9835H-1751.94ZM-1795.03 53.7032H-1789.25V58.5371H-1795.03V53.7032ZM-1791.67 56.1201V43.9835H-1786.83V56.1201H-1791.67ZM-1789.25 46.4005H-1795.03V41.5666H-1789.25V46.4005ZM-1792.61 43.9835V56.1201H-1797.44V43.9835H-1792.61ZM-1803.83 53.7032H-1798.01V58.5371H-1803.83V53.7032ZM-1800.43 56.1201V43.9835H-1795.6V56.1201H-1800.43ZM-1798.01 46.4005H-1803.83V41.5666H-1798.01V46.4005ZM-1801.41 43.9835V56.1201H-1806.25V43.9835H-1801.41ZM1886.42 21.011L1872.68 30.5682L1869.92 26.6L1883.66 17.0427L1886.42 21.011ZM1869.92 30.565L1856.14 21.013L1858.9 17.0407L1872.67 26.5928L1869.92 30.565ZM1857.52 16.6099H1885.04V21.4438H1857.52V16.6099ZM1869.91 26.6082L1869.96 26.5752L1872.74 30.5269L1872.7 30.5599L1869.91 26.6082ZM1872.73 26.5669L1882.43 33.3131L1879.67 37.2815L1869.97 30.5352L1872.73 26.5669ZM1881.05 32.8803L2875.22 32.7813L2875.23 37.6152L1881.05 37.7142L1881.05 32.8803ZM2873.91 33.1693L2903.32 14.1354L2905.94 18.1933L2876.54 37.2272L2873.91 33.1693ZM2904.63 13.7474L2941.96 13.7474V18.5813L2904.63 18.5813V13.7474ZM2943.35 14.1886L3000.06 54.1442L2997.28 58.0958L2940.57 18.1401L2943.35 14.1886ZM2997.29 54.136L3027.66 33.0041L3030.42 36.9721L3000.05 58.104L2997.29 54.136ZM3029.04 32.5711H3041.92V37.405H3029.04V32.5711ZM3043.3 33.0037L3050.34 37.8979L3047.58 41.8667L3040.54 36.9724L3043.3 33.0037ZM3050.34 41.8664L3039.17 49.638L3036.41 45.6697L3047.58 37.8982L3050.34 41.8664ZM3037.79 45.2369H3060.13V50.0708H3037.79V45.2369ZM3058.74 49.635L3047.62 41.8635L3050.39 37.9011L3061.51 45.6727L3058.74 49.635ZM3047.63 37.8986L3054.51 33.1034L3057.28 37.0709L3050.39 41.866L3047.63 37.8986ZM3055.89 32.6702L3161.94 32.5711L3161.94 37.405L3055.9 37.5041L3055.89 32.6702ZM3163.46 33.1065L3202.85 64.865L3199.81 68.6281L3160.42 36.8696L3163.46 33.1065ZM3201.33 64.3296L3370.32 64.3296V69.1635L3201.33 69.1635V64.3296ZM3372.73 66.7466V131H3367.9V66.7466H3372.73ZM3370.32 133.417L1448.62 133.417V128.583L3370.32 128.583V133.417ZM1446.2 131V105.025H1451.03V131H1446.2ZM1446.2 105.045L1445.72 46.6485L1450.56 46.6091L1451.03 105.005L1446.2 105.045ZM1445.72 46.6288V35.1982H1450.56V46.6288H1445.72ZM1448.14 32.7813L1823.01 32.8803L1823.01 37.7142L1448.14 37.6152L1448.14 32.7813ZM1823.94 33.0635L1843.28 41.0548L1841.43 45.5224L1822.09 37.5311L1823.94 33.0635ZM1841.26 41.134L1870.2 26.4243L1872.39 30.7335L1843.45 45.4432L1841.26 41.134ZM3386.04 69.2816H3378.18V64.4477H3386.04V69.2816ZM3380.59 66.8647V100.924H3375.76V66.8647H3380.59ZM3378.18 98.5072H3386.04V103.341H3378.18V98.5072ZM3383.62 100.924V66.8647H3388.45V100.924H3383.62ZM3417.47 69.2816H3409.61V64.4477H3417.47V69.2816ZM3412.03 66.8647V100.924H3407.19V66.8647H3412.03ZM3409.61 98.5072H3417.47V103.341H3409.61V98.5072ZM3415.05 100.924V66.8647H3419.89V100.924H3415.05ZM3452.84 69.2816H3444.98V64.4477L3452.84 64.4477V69.2816ZM3447.4 66.8647V100.924H3442.56V66.8647L3447.4 66.8647ZM3444.98 98.5072H3452.84V103.341H3444.98V98.5072ZM3450.42 100.924V66.8647H3455.26V100.924H3450.42ZM3437.12 69.2816H3425.33V64.4477H3437.12V69.2816ZM3427.75 66.8647V100.924H3422.91V66.8647H3427.75ZM3425.33 98.5072H3437.12V103.341L3425.33 103.341V98.5072ZM3434.7 100.924V66.8647H3439.54V100.924H3434.7ZM3397.82 69.2816H3393.89V64.4477H3397.82V69.2816ZM3396.31 66.8647V100.924H3391.48V66.8647H3396.31ZM3393.89 98.5072H3397.82V103.341H3393.89V98.5072ZM3395.41 100.924V66.8647H3400.24V100.924H3395.41ZM3460.7 69.2816H3456.77V64.4477H3460.7V69.2816ZM3459.19 66.8647V100.924H3454.35V66.8647H3459.19ZM3456.77 98.5072H3460.7V103.341H3456.77V98.5072ZM3458.28 100.924V66.8647H3463.12V100.924H3458.28ZM3488.21 69.2816H3484.28V64.4477H3488.21V69.2816ZM3486.7 66.8647V100.924H3481.86V66.8647H3486.7ZM3484.28 98.5072H3488.21V103.341H3484.28V98.5072ZM3485.79 100.924V66.8647H3490.63V100.924H3485.79ZM3500 69.2816H3496.07V64.4477H3500V69.2816ZM3498.49 66.8647V100.924H3493.65V66.8647H3498.49ZM3496.07 98.5072H3500V103.341H3496.07V98.5072ZM3497.58 100.924V66.8647H3502.42V100.924H3497.58Z" fill="black" mask="url(#path-1-inside-1_469_1003)"/>
</svg>
