<svg width="1440" height="131" viewBox="0 0 1440 131" fill="none" xmlns="http://www.w3.org/2000/svg">
<mask id="path-1-inside-1_469_912" fill="white">
<path d="M569.943 13.5588L556.207 23.1161L542.421 13.5588H569.943ZM-406.284 35.5504H-383.924L-384.042 35.6167H-406.167L-406.284 35.5504ZM-1951.96 35.0215L-1926.3 17.1304H-1882.95L-1829.39 56.1532L-1829.31 56.0871V56.1532L-1798.46 35.6167L-406.128 35.6167L-395.045 43.322L-413.555 56.1532H-376.614L-395.045 43.322L-383.963 35.6167L-109.851 35.6167L-94.1313 24.6373L-63.0847 3.04246L-42.4133 17.428L62.3977 17.0973H79.2173L121.661 46.6289L234.489 46.6289L258.815 29.7302L507.913 29.8292L527.26 43.289L556.255 23.083L565.95 29.8292L1119.99 29.7302L1162.76 0L1243.42 56.1201L1273.8 34.9882H1286.68L1293.72 39.8827L1282.54 47.6543H1304.88L1293.76 39.8827L1300.66 35.0875L1528.52 34.9882V131L-3262 131V34.9882L-1952.12 34.9882L-1951.96 35.0215ZM62.7119 40.9078H68.5281V36.8732H62.7119V40.9078ZM62.7119 32.8057H68.5281V28.7711H62.7119V32.8057ZM17.675 40.9078H23.4521V28.7711H17.675V40.9078ZM-4.60767 32.8057H1.16919V28.7711H-4.60767V32.8057ZM-1616.23 56.1201H-1598.78V43.9835H-1616.23V56.1201ZM-1674.35 56.1201H-1668.54V43.9835H-1674.35V56.1201ZM-1715.03 56.1201H-1709.25V43.9835H-1715.03V56.1201ZM-1723.83 56.1201H-1718.01V43.9835H-1723.83V56.1201Z"/>
<path d="M1965.04 19.0268L1951.3 28.5841L1951.3 28.5789L1937.52 19.0268H1965.04Z"/>
<path d="M1951.3 28.5841L1951.35 28.5511L1961.05 35.2973L2955.23 35.1982L2984.63 16.1643L3021.96 16.1643L3078.67 56.12L3109.04 34.9881H3121.92L3128.96 39.8823L3117.79 47.6539H3140.13L3129.01 39.8823L3135.9 35.0872L3241.94 34.9881L3281.33 66.7466L3450.32 66.7466V131L1528.62 131V105.025L1528.14 46.6288V35.1982L1903.01 35.2973L1922.36 43.2886L1951.3 28.5789L1951.3 28.5841Z"/>
<path d="M3466.04 66.8647H3458.18V100.924H3466.04V66.8647Z"/>
<path d="M3497.47 66.8647H3489.61V100.924H3497.47V66.8647Z"/>
<path d="M3532.84 66.8647L3524.98 66.8647V100.924H3532.84V66.8647Z"/>
<path d="M3517.12 66.8647H3505.33V100.924L3517.12 100.924V66.8647Z"/>
<path d="M3477.82 66.8647H3473.89V100.924H3477.82V66.8647Z"/>
<path d="M3540.7 66.8647H3536.77V100.924H3540.7V66.8647Z"/>
<path d="M3568.21 66.8647H3564.28V100.924H3568.21V66.8647Z"/>
<path d="M3580 66.8647H3576.07V100.924H3580V66.8647Z"/>
</mask>
<path d="M569.943 13.5588L556.207 23.1161L542.421 13.5588H569.943ZM-406.284 35.5504H-383.924L-384.042 35.6167H-406.167L-406.284 35.5504ZM-1951.96 35.0215L-1926.3 17.1304H-1882.95L-1829.39 56.1532L-1829.31 56.0871V56.1532L-1798.46 35.6167L-406.128 35.6167L-395.045 43.322L-413.555 56.1532H-376.614L-395.045 43.322L-383.963 35.6167L-109.851 35.6167L-94.1313 24.6373L-63.0847 3.04246L-42.4133 17.428L62.3977 17.0973H79.2173L121.661 46.6289L234.489 46.6289L258.815 29.7302L507.913 29.8292L527.26 43.289L556.255 23.083L565.95 29.8292L1119.99 29.7302L1162.76 0L1243.42 56.1201L1273.8 34.9882H1286.68L1293.72 39.8827L1282.54 47.6543H1304.88L1293.76 39.8827L1300.66 35.0875L1528.52 34.9882V131L-3262 131V34.9882L-1952.12 34.9882L-1951.96 35.0215ZM62.7119 40.9078H68.5281V36.8732H62.7119V40.9078ZM62.7119 32.8057H68.5281V28.7711H62.7119V32.8057ZM17.675 40.9078H23.4521V28.7711H17.675V40.9078ZM-4.60767 32.8057H1.16919V28.7711H-4.60767V32.8057ZM-1616.23 56.1201H-1598.78V43.9835H-1616.23V56.1201ZM-1674.35 56.1201H-1668.54V43.9835H-1674.35V56.1201ZM-1715.03 56.1201H-1709.25V43.9835H-1715.03V56.1201ZM-1723.83 56.1201H-1718.01V43.9835H-1723.83V56.1201Z" fill="#CAFA19"/>
<path d="M1965.04 19.0268L1951.3 28.5841L1951.3 28.5789L1937.52 19.0268H1965.04Z" fill="#CAFA19"/>
<path d="M1951.3 28.5841L1951.35 28.5511L1961.05 35.2973L2955.23 35.1982L2984.63 16.1643L3021.96 16.1643L3078.67 56.12L3109.04 34.9881H3121.92L3128.96 39.8823L3117.79 47.6539H3140.13L3129.01 39.8823L3135.9 35.0872L3241.94 34.9881L3281.33 66.7466L3450.32 66.7466V131L1528.62 131V105.025L1528.14 46.6288V35.1982L1903.01 35.2973L1922.36 43.2886L1951.3 28.5789L1951.3 28.5841Z" fill="#CAFA19"/>
<path d="M3466.04 66.8647H3458.18V100.924H3466.04V66.8647Z" fill="#CAFA19"/>
<path d="M3497.47 66.8647H3489.61V100.924H3497.47V66.8647Z" fill="#CAFA19"/>
<path d="M3532.84 66.8647L3524.98 66.8647V100.924H3532.84V66.8647Z" fill="#CAFA19"/>
<path d="M3517.12 66.8647H3505.33V100.924L3517.12 100.924V66.8647Z" fill="#CAFA19"/>
<path d="M3477.82 66.8647H3473.89V100.924H3477.82V66.8647Z" fill="#CAFA19"/>
<path d="M3540.7 66.8647H3536.77V100.924H3540.7V66.8647Z" fill="#CAFA19"/>
<path d="M3568.21 66.8647H3564.28V100.924H3568.21V66.8647Z" fill="#CAFA19"/>
<path d="M3580 66.8647H3576.07V100.924H3580V66.8647Z" fill="#CAFA19"/>
<path d="M1950.64 29.5955L1950.63 29.5903L1951.96 27.5675L1951.97 27.5726L1950.64 29.5955ZM569.943 13.5588V11.1419H577.648L571.323 15.5427L569.943 13.5588ZM556.207 23.1161L557.588 25.1L556.21 26.0588L554.83 25.1024L556.207 23.1161ZM542.421 13.5588L541.044 15.5451L534.693 11.1419H542.421V13.5588ZM-406.284 35.5504L-407.473 37.6549L-415.479 33.1335H-406.284V35.5504ZM-383.924 35.5504V33.1335H-374.682L-382.74 37.6579L-383.924 35.5504ZM-384.042 35.6167L-382.858 37.7242L-383.409 38.0337H-384.042V35.6167ZM-406.167 35.6167V38.0337H-406.802L-407.356 37.7212L-406.167 35.6167ZM-1951.96 35.0215L-1950.58 37.0042L-1951.44 37.6031L-1952.46 37.3858L-1951.96 35.0215ZM-1926.3 17.1304L-1927.68 15.1477L-1927.06 14.7134H-1926.3V17.1304ZM-1882.95 17.1304V14.7134H-1882.16L-1881.53 15.1769L-1882.95 17.1304ZM-1829.39 56.1532L-1827.83 58.006L-1829.28 59.219L-1830.81 58.1067L-1829.39 56.1532ZM-1829.31 56.0871L-1830.86 54.2342L-1826.89 50.9101V56.0871H-1829.31ZM-1829.31 56.1532L-1827.97 58.1651L-1831.73 60.6656V56.1532H-1829.31ZM-1798.46 35.6167L-1799.8 33.6048L-1799.19 33.1998H-1798.46V35.6167ZM-406.128 35.6167V33.1998H-405.37L-404.748 33.6323L-406.128 35.6167ZM-413.555 56.1532V58.5701H-421.284L-414.932 54.1668L-413.555 56.1532ZM-376.614 56.1532L-375.233 54.1695L-368.912 58.5701H-376.614V56.1532ZM-383.963 35.6167L-385.343 33.6323L-384.72 33.1998H-383.963V35.6167ZM-109.851 35.6167L-108.467 37.5982L-109.09 38.0337H-109.851V35.6167ZM-94.1313 24.6373L-95.5154 22.6558L-95.5115 22.6531L-94.1313 24.6373ZM-63.0847 3.04246L-64.4648 1.05829L-63.0845 0.0980835L-61.7041 1.05862L-63.0847 3.04246ZM-42.4133 17.428L-42.4058 19.8449L-43.1682 19.8474L-43.7939 19.4118L-42.4133 17.428ZM62.3977 17.0973L62.3901 14.6804H62.3977V17.0973ZM79.2173 17.0973V14.6804H79.9753L80.5977 15.1133L79.2173 17.0973ZM121.661 46.6289V49.0459H120.903L120.281 48.6129L121.661 46.6289ZM234.489 46.6289L235.867 48.6139L235.246 49.0459H234.489V46.6289ZM258.815 29.7302L257.436 27.7452L258.058 27.3129L258.816 27.3132L258.815 29.7302ZM507.913 29.8292L507.914 27.4123L508.671 27.4126L509.293 27.8452L507.913 29.8292ZM527.26 43.289L528.642 45.2719L527.261 46.2341L525.88 45.273L527.26 43.289ZM556.255 23.083L554.873 21.1001L556.254 20.1378L557.635 21.0991L556.255 23.083ZM565.95 29.8292L565.95 32.2462L565.192 32.2463L564.569 31.8131L565.95 29.8292ZM1119.99 29.7302L1121.37 31.7149L1120.74 32.147L1119.99 32.1471L1119.99 29.7302ZM1162.76 0L1161.38 -1.9847L1162.76 -2.94386L1164.14 -1.98399L1162.76 0ZM1243.42 56.1201L1244.81 58.1042L1243.42 59.0645L1242.04 58.1041L1243.42 56.1201ZM1273.8 34.9882L1272.42 33.0042L1273.04 32.5713H1273.8V34.9882ZM1286.68 34.9882V32.5713H1287.44L1288.06 33.0042L1286.68 34.9882ZM1293.72 39.8827L1295.1 37.8987L1297.95 39.8829L1295.1 41.8668L1293.72 39.8827ZM1282.54 47.6543V50.0712H1274.84L1281.16 45.6701L1282.54 47.6543ZM1304.88 47.6543L1306.27 45.6731L1312.56 50.0712H1304.88V47.6543ZM1293.76 39.8827L1292.38 41.8639L1289.54 39.8782L1292.38 37.8986L1293.76 39.8827ZM1300.66 35.0875L1299.28 33.1034L1299.9 32.6709L1300.66 32.6706L1300.66 35.0875ZM1528.52 34.9882L1528.52 32.5713L1530.94 32.5702V34.9882H1528.52ZM1528.52 131H1530.94V133.417H1528.52V131ZM-3262 131V133.417H-3264.42V131H-3262ZM-3262 34.9882H-3264.42V32.5713H-3262V34.9882ZM-1952.12 34.9882V32.5713L-1951.86 32.5713L-1951.62 32.6238L-1952.12 34.9882ZM62.7119 40.9078V43.3247H60.2952V40.9078H62.7119ZM68.5281 40.9078H70.9451V43.3247H68.5281V40.9078ZM68.5281 36.8732V34.4563H70.9451V36.8732H68.5281ZM62.7119 36.8732H60.2952V34.4563H62.7119V36.8732ZM62.7119 32.8057V35.2226H60.2952V32.8057H62.7119ZM68.5281 32.8057H70.9451V35.2226H68.5281V32.8057ZM68.5281 28.7711V26.3542H70.9451V28.7711H68.5281ZM62.7119 28.7711H60.2952V26.3542H62.7119V28.7711ZM17.675 40.9078V43.3247H15.2581V40.9078H17.675ZM23.4521 40.9078H25.8691V43.3247H23.4521V40.9078ZM23.4521 28.7711V26.3542H25.8691V28.7711H23.4521ZM17.675 28.7711H15.2581V26.3542H17.675V28.7711ZM-4.60767 32.8057V35.2226H-7.02466V32.8057H-4.60767ZM1.16919 32.8057H3.58594V35.2226H1.16919V32.8057ZM1.16919 28.7711V26.3542H3.58594V28.7711H1.16919ZM-4.60767 28.7711H-7.02466V26.3542H-4.60767V28.7711ZM-1616.23 56.1201V58.5371H-1618.65V56.1201H-1616.23ZM-1598.78 56.1201H-1596.36V58.5371H-1598.78V56.1201ZM-1598.78 43.9835V41.5666H-1596.36V43.9835H-1598.78ZM-1616.23 43.9835H-1618.65V41.5666H-1616.23V43.9835ZM-1674.35 56.1201V58.5371H-1676.77V56.1201H-1674.35ZM-1668.54 56.1201H-1666.12V58.5371H-1668.54V56.1201ZM-1668.54 43.9835V41.5666H-1666.12V43.9835H-1668.54ZM-1674.35 43.9835H-1676.77V41.5666H-1674.35V43.9835ZM-1715.03 56.1201V58.5371H-1717.44V56.1201H-1715.03ZM-1709.25 56.1201H-1706.83V58.5371H-1709.25V56.1201ZM-1709.25 43.9835V41.5666H-1706.83V43.9835H-1709.25ZM-1715.03 43.9835H-1717.44V41.5666H-1715.03V43.9835ZM-1723.83 56.1201V58.5371H-1726.25V56.1201H-1723.83ZM-1718.01 56.1201H-1715.6V58.5371H-1718.01V56.1201ZM-1718.01 43.9835V41.5666H-1715.6V43.9835H-1718.01ZM-1723.83 43.9835H-1726.25V41.5666H-1723.83V43.9835ZM1965.04 19.0268V16.6099H1972.75L1966.42 21.011L1965.04 19.0268ZM1951.3 28.5841L1952.68 30.5682L1949.91 26.6082L1951.3 28.5841ZM1951.3 28.5789L1952.67 26.5928L1956 28.8994L1952.39 30.7335L1951.3 28.5789ZM1937.52 19.0268L1936.14 21.013L1929.8 16.6099H1937.52V19.0268ZM1951.35 28.5511L1949.96 26.5752L1951.34 25.6008L1952.73 26.5669L1951.35 28.5511ZM1961.05 35.2973L1961.05 37.7142L1960.29 37.7143L1959.67 37.2815L1961.05 35.2973ZM2955.23 35.1982L2956.54 37.2272L2955.94 37.6151L2955.23 37.6152L2955.23 35.1982ZM2984.63 16.1643L2983.32 14.1354L2983.91 13.7474H2984.63V16.1643ZM3021.96 16.1643V13.7474H3022.73L3023.35 14.1886L3021.96 16.1643ZM3078.67 56.12L3080.05 58.104L3078.66 59.0704L3077.28 58.0958L3078.67 56.12ZM3109.04 34.9881L3107.66 33.0041L3108.28 32.5711H3109.04V34.9881ZM3121.92 34.9881V32.5711H3122.68L3123.3 33.0037L3121.92 34.9881ZM3128.96 39.8823L3130.34 37.8979L3133.19 39.882L3130.34 41.8664L3128.96 39.8823ZM3117.79 47.6539V50.0708H3110.08L3116.41 45.6697L3117.79 47.6539ZM3140.13 47.6539L3141.51 45.6727L3147.81 50.0708H3140.13V47.6539ZM3129.01 39.8823L3127.62 41.8635L3124.78 39.8784L3127.63 37.8986L3129.01 39.8823ZM3135.9 35.0872L3134.51 33.1034L3135.14 32.6709L3135.89 32.6702L3135.9 35.0872ZM3241.94 34.9881L3241.94 32.5711L3242.79 32.5703L3243.46 33.1065L3241.94 34.9881ZM3281.33 66.7466V69.1635H3280.48L3279.81 68.6281L3281.33 66.7466ZM3450.32 66.7466V64.3296H3452.73V66.7466H3450.32ZM3450.32 131H3452.73V133.417H3450.32V131ZM1528.62 131V133.417H1526.2V131H1528.62ZM1528.62 105.025L1531.03 105.005L1531.03 105.015V105.025H1528.62ZM1528.14 46.6288L1525.72 46.6485V46.6386V46.6288H1528.14ZM1528.14 35.1982H1525.72V32.7806L1528.14 32.7813L1528.14 35.1982ZM1903.01 35.2973L1903.01 32.8803L1903.49 32.8805L1903.94 33.0635L1903.01 35.2973ZM1922.36 43.2886L1923.45 45.4432L1922.46 45.9468L1921.43 45.5224L1922.36 43.2886ZM3466.04 66.8647V64.4477H3468.45V66.8647H3466.04ZM3458.18 66.8647H3455.76V64.4477H3458.18V66.8647ZM3458.18 100.924V103.341H3455.76V100.924H3458.18ZM3466.04 100.924H3468.45V103.341H3466.04V100.924ZM3497.47 66.8647V64.4477H3499.89V66.8647H3497.47ZM3489.61 66.8647H3487.19V64.4477H3489.61V66.8647ZM3489.61 100.924V103.341H3487.19V100.924H3489.61ZM3497.47 100.924H3499.89V103.341H3497.47V100.924ZM3532.84 66.8647V64.4477H3535.26V66.8647H3532.84ZM3524.98 66.8647H3522.56V64.4477H3524.98V66.8647ZM3524.98 100.924V103.341H3522.56V100.924H3524.98ZM3532.84 100.924H3535.26V103.341H3532.84V100.924ZM3517.12 66.8647V64.4477H3519.54V66.8647H3517.12ZM3505.33 66.8647H3502.91V64.4477H3505.33V66.8647ZM3505.33 100.924V103.341H3502.91V100.924H3505.33ZM3517.12 100.924H3519.54V103.341H3517.12V100.924ZM3477.82 66.8647V64.4477H3480.24V66.8647H3477.82ZM3473.89 66.8647H3471.48V64.4477H3473.89V66.8647ZM3473.89 100.924V103.341H3471.48V100.924H3473.89ZM3477.82 100.924H3480.24V103.341H3477.82V100.924ZM3540.7 66.8647V64.4477H3543.12V66.8647H3540.7ZM3536.77 66.8647H3534.35V64.4477H3536.77V66.8647ZM3536.77 100.924V103.341H3534.35V100.924H3536.77ZM3540.7 100.924H3543.12V103.341H3540.7V100.924ZM3568.21 66.8647V64.4477H3570.63V66.8647H3568.21ZM3564.28 66.8647H3561.86V64.4477H3564.28V66.8647ZM3564.28 100.924V103.341H3561.86V100.924H3564.28ZM3568.21 100.924H3570.63V103.341H3568.21V100.924ZM3580 66.8647V64.4477H3582.42V66.8647H3580ZM3576.07 66.8647H3573.65V64.4477H3576.07V66.8647ZM3576.07 100.924V103.341H3573.65V100.924H3576.07ZM3580 100.924H3582.42V103.341H3580V100.924ZM571.323 15.5427L557.588 25.1L554.827 21.1322L568.562 11.5749L571.323 15.5427ZM554.83 25.1024L541.044 15.5451L543.798 11.5725L557.584 21.1298L554.83 25.1024ZM542.421 11.1419H569.943V15.9757H542.421V11.1419ZM-406.284 33.1335H-383.924V37.9673H-406.284V33.1335ZM-382.74 37.6579L-382.858 37.7242L-385.225 33.5092L-385.107 33.4429L-382.74 37.6579ZM-384.042 38.0337H-406.167V33.1998H-384.042V38.0337ZM-407.356 37.7212L-407.473 37.6549L-405.096 33.4459L-404.979 33.5122L-407.356 37.7212ZM-1953.34 33.0388L-1927.68 15.1477L-1924.92 19.113L-1950.58 37.0042L-1953.34 33.0388ZM-1926.3 14.7134H-1882.95V19.5473H-1926.3V14.7134ZM-1881.53 15.1769L-1827.96 54.1996L-1830.81 58.1067L-1884.38 19.0839L-1881.53 15.1769ZM-1830.94 54.3003L-1830.86 54.2342L-1827.76 57.94L-1827.83 58.006L-1830.94 54.3003ZM-1826.89 56.0871V56.1532H-1831.73V56.0871H-1826.89ZM-1830.65 54.1412L-1799.8 33.6048L-1797.12 37.6286L-1827.97 58.1651L-1830.65 54.1412ZM-1798.46 33.1998L-406.128 33.1998V38.0337L-1798.46 38.0337V33.1998ZM-404.748 33.6323L-393.665 41.3375L-396.425 45.3064L-407.508 37.6012L-404.748 33.6323ZM-393.668 45.3083L-412.178 58.1395L-414.932 54.1668L-396.422 41.3356L-393.668 45.3083ZM-413.555 53.7362H-376.614V58.5701H-413.555V53.7362ZM-377.995 58.1367L-396.426 45.3056L-393.664 41.3384L-375.233 54.1695L-377.995 58.1367ZM-396.425 41.3376L-385.343 33.6323L-382.583 37.6011L-393.665 45.3064L-396.425 41.3376ZM-383.963 33.1998L-109.851 33.1998V38.0337L-383.963 38.0337V33.1998ZM-111.235 33.6352L-95.5154 22.6558L-92.7473 26.6188L-108.467 37.5982L-111.235 33.6352ZM-95.5115 22.6531L-64.4648 1.05829L-61.7046 5.02662L-92.7512 26.6215L-95.5115 22.6531ZM-61.7041 1.05862L-41.033 15.4442L-43.7939 19.4118L-64.4653 5.02629L-61.7041 1.05862ZM-42.4211 15.0111L62.3901 14.6804L62.4053 19.5142L-42.4058 19.8449L-42.4211 15.0111ZM62.3977 14.6804H79.2173V19.5142H62.3977V14.6804ZM80.5977 15.1133L123.041 44.645L120.281 48.6129L77.8369 19.0813L80.5977 15.1133ZM121.661 44.212L234.489 44.212V49.0459L121.661 49.0459V44.212ZM233.11 44.6439L257.436 27.7452L260.194 31.7152L235.867 48.6139L233.11 44.6439ZM258.816 27.3132L507.914 27.4123L507.912 32.2462L258.814 32.1471L258.816 27.3132ZM509.293 27.8452L528.64 41.3049L525.88 45.273L506.532 31.8133L509.293 27.8452ZM525.878 41.306L554.873 21.1001L557.637 25.066L528.642 45.2719L525.878 41.306ZM557.635 21.0991L567.33 27.8454L564.569 31.8131L554.875 25.0669L557.635 21.0991ZM565.949 27.4123L1119.99 27.3132L1119.99 32.1471L565.95 32.2462L565.949 27.4123ZM1118.61 27.7455L1161.38 -1.9847L1164.14 1.9847L1121.37 31.7149L1118.61 27.7455ZM1164.14 -1.98399L1244.81 54.1361L1242.04 58.1041L1161.38 1.98399L1164.14 -1.98399ZM1242.04 54.1361L1272.42 33.0042L1275.18 36.9722L1244.81 58.1042L1242.04 54.1361ZM1273.8 32.5713H1286.68V37.4051H1273.8V32.5713ZM1288.06 33.0042L1295.1 37.8987L1292.34 41.8666L1285.3 36.9722L1288.06 33.0042ZM1295.1 41.8668L1283.92 49.6384L1281.16 45.6701L1292.34 37.8985L1295.1 41.8668ZM1282.54 45.2373H1304.88V50.0712H1282.54V45.2373ZM1303.5 49.6354L1292.38 41.8639L1295.15 37.9015L1306.27 45.6731L1303.5 49.6354ZM1292.38 37.8986L1299.28 33.1034L1302.04 37.0716L1295.14 41.8668L1292.38 37.8986ZM1300.66 32.6706L1528.52 32.5713L1528.53 37.4051L1300.66 37.5045L1300.66 32.6706ZM1530.94 34.9882V131H1526.11V34.9882H1530.94ZM1528.52 133.417L-3262 133.417V128.583L1528.52 128.583V133.417ZM-3264.42 131V34.9882H-3259.58V131H-3264.42ZM-3262 32.5713L-1952.12 32.5713V37.4051L-3262 37.4051V32.5713ZM-1951.62 32.6238L-1951.46 32.6571L-1952.46 37.3858L-1952.62 37.3526L-1951.62 32.6238ZM62.7119 38.4908H68.5281V43.3247H62.7119V38.4908ZM66.1111 40.9078V36.8732H70.9451V40.9078H66.1111ZM68.5281 39.2902H62.7119V34.4563H68.5281V39.2902ZM65.1289 36.8732V40.9078H60.2952V36.8732H65.1289ZM62.7119 30.3887H68.5281V35.2226H62.7119V30.3887ZM66.1111 32.8057V28.7711H70.9451V32.8057H66.1111ZM68.5281 31.1881H62.7119V26.3542H68.5281V31.1881ZM65.1289 28.7711V32.8057H60.2952V28.7711H65.1289ZM17.675 38.4908H23.4521V43.3247H17.675V38.4908ZM21.0352 40.9078V28.7711H25.8691V40.9078H21.0352ZM23.4521 31.1881H17.675V26.3542H23.4521V31.1881ZM20.092 28.7711V40.9078H15.2581V28.7711H20.092ZM-4.60767 30.3887H1.16919V35.2226H-4.60767V30.3887ZM-1.2478 32.8057V28.7711H3.58594V32.8057H-1.2478ZM1.16919 31.1881H-4.60767V26.3542H1.16919V31.1881ZM-2.19067 28.7711V32.8057H-7.02466V28.7711H-2.19067ZM-1616.23 53.7032H-1598.78V58.5371H-1616.23V53.7032ZM-1601.2 56.1201V43.9835H-1596.36V56.1201H-1601.2ZM-1598.78 46.4005H-1616.23V41.5666H-1598.78V46.4005ZM-1613.81 43.9835V56.1201H-1618.65V43.9835H-1613.81ZM-1674.35 53.7032H-1668.54V58.5371H-1674.35V53.7032ZM-1670.95 56.1201V43.9835H-1666.12V56.1201H-1670.95ZM-1668.54 46.4005H-1674.35V41.5666H-1668.54V46.4005ZM-1671.94 43.9835V56.1201H-1676.77V43.9835H-1671.94ZM-1715.03 53.7032H-1709.25V58.5371H-1715.03V53.7032ZM-1711.67 56.1201V43.9835H-1706.83V56.1201H-1711.67ZM-1709.25 46.4005H-1715.03V41.5666H-1709.25V46.4005ZM-1712.61 43.9835V56.1201H-1717.44V43.9835H-1712.61ZM-1723.83 53.7032H-1718.01V58.5371H-1723.83V53.7032ZM-1720.43 56.1201V43.9835H-1715.6V56.1201H-1720.43ZM-1718.01 46.4005H-1723.83V41.5666H-1718.01V46.4005ZM-1721.41 43.9835V56.1201H-1726.25V43.9835H-1721.41ZM1966.42 21.011L1952.68 30.5682L1949.92 26.6L1963.66 17.0427L1966.42 21.011ZM1949.92 30.565L1936.14 21.013L1938.9 17.0407L1952.67 26.5928L1949.92 30.565ZM1937.52 16.6099H1965.04V21.4438H1937.52V16.6099ZM1949.91 26.6082L1949.96 26.5752L1952.74 30.5269L1952.7 30.5599L1949.91 26.6082ZM1952.73 26.5669L1962.43 33.3131L1959.67 37.2815L1949.97 30.5352L1952.73 26.5669ZM1961.05 32.8803L2955.22 32.7813L2955.23 37.6152L1961.05 37.7142L1961.05 32.8803ZM2953.91 33.1693L2983.32 14.1354L2985.94 18.1933L2956.54 37.2272L2953.91 33.1693ZM2984.63 13.7474L3021.96 13.7474V18.5813L2984.63 18.5813V13.7474ZM3023.35 14.1886L3080.06 54.1442L3077.28 58.0958L3020.57 18.1401L3023.35 14.1886ZM3077.29 54.136L3107.66 33.0041L3110.42 36.9721L3080.05 58.104L3077.29 54.136ZM3109.04 32.5711H3121.92V37.405H3109.04V32.5711ZM3123.3 33.0037L3130.34 37.8979L3127.58 41.8667L3120.54 36.9724L3123.3 33.0037ZM3130.34 41.8664L3119.17 49.638L3116.41 45.6697L3127.58 37.8982L3130.34 41.8664ZM3117.79 45.2369H3140.13V50.0708H3117.79V45.2369ZM3138.74 49.635L3127.62 41.8635L3130.39 37.9011L3141.51 45.6727L3138.74 49.635ZM3127.63 37.8986L3134.51 33.1034L3137.28 37.0709L3130.39 41.866L3127.63 37.8986ZM3135.89 32.6702L3241.94 32.5711L3241.94 37.405L3135.9 37.5041L3135.89 32.6702ZM3243.46 33.1065L3282.85 64.865L3279.81 68.6281L3240.42 36.8696L3243.46 33.1065ZM3281.33 64.3296L3450.32 64.3296V69.1635L3281.33 69.1635V64.3296ZM3452.73 66.7466V131H3447.9V66.7466H3452.73ZM3450.32 133.417L1528.62 133.417V128.583L3450.32 128.583V133.417ZM1526.2 131V105.025H1531.03V131H1526.2ZM1526.2 105.045L1525.72 46.6485L1530.56 46.6091L1531.03 105.005L1526.2 105.045ZM1525.72 46.6288V35.1982H1530.56V46.6288H1525.72ZM1528.14 32.7813L1903.01 32.8803L1903.01 37.7142L1528.14 37.6152L1528.14 32.7813ZM1903.94 33.0635L1923.28 41.0548L1921.43 45.5224L1902.09 37.5311L1903.94 33.0635ZM1921.26 41.134L1950.2 26.4243L1952.39 30.7335L1923.45 45.4432L1921.26 41.134ZM3466.04 69.2816H3458.18V64.4477H3466.04V69.2816ZM3460.59 66.8647V100.924H3455.76V66.8647H3460.59ZM3458.18 98.5072H3466.04V103.341H3458.18V98.5072ZM3463.62 100.924V66.8647H3468.45V100.924H3463.62ZM3497.47 69.2816H3489.61V64.4477H3497.47V69.2816ZM3492.03 66.8647V100.924H3487.19V66.8647H3492.03ZM3489.61 98.5072H3497.47V103.341H3489.61V98.5072ZM3495.05 100.924V66.8647H3499.89V100.924H3495.05ZM3532.84 69.2816H3524.98V64.4477L3532.84 64.4477V69.2816ZM3527.4 66.8647V100.924H3522.56V66.8647L3527.4 66.8647ZM3524.98 98.5072H3532.84V103.341H3524.98V98.5072ZM3530.42 100.924V66.8647H3535.26V100.924H3530.42ZM3517.12 69.2816H3505.33V64.4477H3517.12V69.2816ZM3507.75 66.8647V100.924H3502.91V66.8647H3507.75ZM3505.33 98.5072H3517.12V103.341L3505.33 103.341V98.5072ZM3514.7 100.924V66.8647H3519.54V100.924H3514.7ZM3477.82 69.2816H3473.89V64.4477H3477.82V69.2816ZM3476.31 66.8647V100.924H3471.48V66.8647H3476.31ZM3473.89 98.5072H3477.82V103.341H3473.89V98.5072ZM3475.41 100.924V66.8647H3480.24V100.924H3475.41ZM3540.7 69.2816H3536.77V64.4477H3540.7V69.2816ZM3539.19 66.8647V100.924H3534.35V66.8647H3539.19ZM3536.77 98.5072H3540.7V103.341H3536.77V98.5072ZM3538.28 100.924V66.8647H3543.12V100.924H3538.28ZM3568.21 69.2816H3564.28V64.4477H3568.21V69.2816ZM3566.7 66.8647V100.924H3561.86V66.8647H3566.7ZM3564.28 98.5072H3568.21V103.341H3564.28V98.5072ZM3565.79 100.924V66.8647H3570.63V100.924H3565.79ZM3580 69.2816H3576.07V64.4477H3580V69.2816ZM3578.49 66.8647V100.924H3573.65V66.8647H3578.49ZM3576.07 98.5072H3580V103.341H3576.07V98.5072ZM3577.58 100.924V66.8647H3582.42V100.924H3577.58Z" fill="#C1FA32" mask="url(#path-1-inside-1_469_912)"/>
</svg>
