<svg width="1556" height="25" viewBox="0 0 1556 25" fill="none" xmlns="http://www.w3.org/2000/svg">
<path fill-rule="evenodd" clip-rule="evenodd" d="M1481.76 24.6719H927.634L917.073 13.1641H475.954H464.62H0.00012207V9.32726H471.587L488.504 0.00930977H1075.42L1088.57 9.32466H1496.72L1496.72 9.32726H1556V13.1641H1492.98L1481.76 24.6719ZM470.007 8.23002L485.367 0.0078125H474.296L459.387 8.23005L470.007 8.23002ZM454.647 8.23002L470.007 0.0078125L458.936 0.00781059L444.027 8.23005L454.647 8.23002ZM454.156 0L438.796 8.22221L428.176 8.22224L443.084 0H454.156ZM438.796 0L423.436 8.22221L412.816 8.22224L427.724 -1.90735e-06L438.796 0ZM408.291 8.22221L423.651 0H412.58L397.672 8.22224L408.291 8.22221ZM392.931 8.22221L408.291 0L397.22 -1.90735e-06L382.311 8.22224L392.931 8.22221ZM392.265 0L376.905 8.22221L366.285 8.22224L381.194 0H392.265ZM376.905 0L361.545 8.22221L350.925 8.22224L365.833 -1.90735e-06L376.905 0ZM346.4 8.22221L361.76 0H350.689L335.781 8.22224L346.4 8.22221ZM331.04 8.22221L346.4 0L335.329 -1.90735e-06L320.421 8.22224L331.04 8.22221Z" fill="#BDFF19"/>
</svg>
