<svg width="1000" height="25" viewBox="0 0 1000 25" fill="none" xmlns="http://www.w3.org/2000/svg">
<path fill-rule="evenodd" clip-rule="evenodd" d="M47.713 0H403.834L410.621 11.5078H694.117H701.401H1000V15.3446H696.924L686.051 24.6626H308.857L300.403 15.3472H38.0958L38.0974 15.3446H0V11.5078H40.5017L47.713 0ZM697.939 16.4419L688.067 24.6641H695.183L704.764 16.4419L697.939 16.4419ZM707.81 16.4419L697.939 24.6641L705.054 24.6641L714.635 16.4419L707.81 16.4419ZM708.126 24.6719L717.998 16.4497L724.823 16.4497L715.241 24.6719H708.126ZM717.998 24.6719L727.869 16.4497L734.694 16.4497L725.113 24.6719L717.998 24.6719ZM737.602 16.4497L727.731 24.6719H734.846L744.427 16.4497L737.602 16.4497ZM747.474 16.4497L737.602 24.6719L744.717 24.6719L754.299 16.4497L747.474 16.4497ZM747.902 24.6719L757.773 16.4497L764.598 16.4497L755.017 24.6719H747.902ZM757.773 24.6719L767.645 16.4497L774.47 16.4497L764.888 24.6719L757.773 24.6719ZM777.378 16.4497L767.506 24.6719H774.621L784.203 16.4497L777.378 16.4497ZM787.249 16.4497L777.378 24.6719L784.493 24.6719L794.074 16.4497L787.249 16.4497Z" fill="#90B313"/>
</svg>
